<?xml version="1.0" encoding="UTF-8"?>
<svg xmlns="http://www.w3.org/2000/svg" version="1.1" viewBox="0 0 727 551">
  <!-- Generator: Adobe Illustrator 29.5.1, SVG Export Plug-In . SVG Version: 2.1.0 Build 141)  -->
  <defs>
    <style>
      .st0 {
        opacity: .2;
      }

      .st0, .st1, .st2, .st3, .st4, .st5, .st6, .st7 {
        fill: #fff;
      }

      .st8 {
        fill: #2c2c30;
      }

      .st1 {
        opacity: 0;
      }

      .st2 {
        opacity: .1;
      }

      .st9 {
        fill: #63967c;
      }

      .st10 {
        fill: #f57328;
      }

      .st11 {
        fill: #3a3944;
      }

      .st12, .st13 {
        fill: #13131c;
      }

      .st12, .st4 {
        opacity: .4;
      }

      .st14 {
        fill: #293330;
      }

      .st15 {
        fill: none;
      }

      .st16 {
        fill: #2c2938;
      }

      .st17 {
        fill: #f2732a;
      }

      .st18 {
        fill: #98cfb4;
      }

      .st19 {
        fill: #9acfb4;
      }

      .st13 {
        opacity: .6;
      }

      .st20 {
        fill: #231f20;
      }

      .st21 {
        isolation: isolate;
      }

      .st22 {
        fill: #293331;
      }

      .st23 {
        fill: #030304;
        opacity: .6;
      }

      .st24 {
        fill: #5b5b65;
      }

      .st25 {
        fill: #f67327;
      }

      .st26 {
        fill: #515355;
        mix-blend-mode: multiply;
        opacity: .5;
      }

      .st27 {
        fill: #9dd4b9;
      }

      .st5 {
        opacity: .1;
      }

      .st28 {
        fill: #acddc4;
      }

      .st6 {
        opacity: .2;
      }

      .st7 {
        opacity: .3;
      }

      .st29 {
        fill: #99d0b5;
      }

      .st30 {
        fill: #e6e6e6;
      }
    </style>
  </defs>
  <g class="st21">
    <g id="Layer_1">
      <path class="st24" d="M641.3,353.8c-12.6,4.6-25.2,9.1-37.7,13.7l-9.6,3.5c-2.8,1-5.7,2-8.4,3.2-5.2,2.5-8.5,6.8-9.9,12.4-2.6,10.3-.2,21.8,6.1,30.4,6.4,8.6,16.5,13.9,27.2,14.6s5.6.3,8-.8,3.5-3.2,3.2-5.6c-.5-4.7-5.4-9.2-9.7-10.7-6-2.1-9.3,4.4-8.7,9.4.6,5.1,3.8,9.5,8.1,12.2,4.8,3,10.5,4.1,16,5.3s10,2.4,14.9,4c9.6,3.2,19.1,7.8,26.3,15s3.5,3.7,4.9,5.8,2.8,4.6,2.7,7.3c0,3.9-3.1,6.8-6.3,8.5s-8.2,2.6-12.5,1.9-11-3.5-16.4-5.4c-2.7-.9-5.5-1.7-8.3-2.2s-2,.3-2.3,1.3.3,2.2,1.3,2.3c5.4.8,10.5,3,15.6,4.9,4.7,1.7,9.7,3.4,14.8,3.1,7.8-.5,17.1-5.2,17.8-13.8s-2.9-9.8-6.1-13.5-6.8-6.8-10.8-9.4c-8.1-5.4-17.5-8.9-26.8-11.4s-9.9-2.2-14.8-3.5c-4.8-1.3-9.7-3.3-12.5-7.6s-2-3.9-1.9-6.1.7-4.9,3-4.7,4.4,2.2,5.8,3.7,2.6,3.1,2.2,4.7c-.6,1.9-4.2,1.6-5.7,1.5-2.4,0-4.9-.3-7.2-.9-4.7-1.1-9.3-3.3-13.1-6.4-7.8-6.3-12.2-16.1-12-26,0-4.8,1-10.4,4.4-13.9,1.8-1.9,4.1-3,6.5-4s5.6-2.1,8.4-3.1c11.9-4.3,23.8-8.6,35.6-13,3-1.1,5.9-2.2,8.9-3.2s1.3-4.4-1-3.6h0Z"/>
      <polygon class="st15" points="403.7 -309.8 40.1 -306.9 44.3 -572.4 352.3 -572.4 403.7 -309.8"/>
      <path class="st24" d="M231.7,416.6c3.9-2.4,7.9-4.9,11.8-7.3,3.8-2.3,7.7-5.2,12.3-5.1s7.6,2.4,9.3,7c1.5,4.2.9,8.7,1,12.8,0,3.9.7,8.1,3.2,11.3,2.2,2.9,5.2,4.2,8,4.4,7.6.5,11.9-7.3,16.2-13.3,10.3-14.2,26.2-18.8,41.5-21.5,3.9-.7,7.8-1.2,11.8-1.7s8.5-1,12.9-.6c7.8.8,15.3,5.5,22.1,11.5,3.5,3,6.8,6.4,10,9.7,3.3,3.5,6.7,7,9.7,11,3,4,5.7,8.6,6.8,13.7,1,4.6.4,10-2.4,12.6-2.5,2.2-7.3,1.1-8.6-3.6s0-5.3.7-7.4c.7-2.1,1.6-4.1,2.5-6.1,3.6-7.9,9-16.4,17-16.9,3.9-.2,7.8,1.7,11.6,3.6s7.7,3.3,11.7,3.5,8-.5,11.8-1.1,8.9-1.5,13.3-2.3c4.4-.8,8.9-1.5,13.3-2.3s8-1.2,10.4-5.1c1.9-3.3,2.5-7.8,2.7-12.1.2-4.4-.2-8.8-1.1-13.3-1.7-9-5.5-17.8-10.7-24.8-6-8.2-13.9-12.6-21.2-18.1-13.9-10.3-28.1-25.8-30.4-46.5-.5-4.6-.3-9.2.8-13.3.4-1.4-1.4-2.7-1.8-1.3-2.2,8.6-1.1,18.5,2.1,27.5,3.4,9.6,9.1,17.8,15.6,24.5,7,7.3,14.8,12.4,22.5,18.1,3.8,2.8,7.5,6,10.6,10.1,2.8,3.7,5.2,7.9,7.1,12.4,3.8,9.1,5.4,19.4,4.2,28.6-.3,2.4-.9,4.8-2,6.6s-3.2,3-5.2,3.5c-4.4,1.2-9.1,1.7-13.7,2.4s-9.2,1.6-13.8,2.3-8.6,1.6-13,1.7c-4.4,0-8.5-1.2-12.7-3.3-3.9-1.9-7.8-3.9-11.7-3.9-8,0-13.6,7.2-17.6,14.7s-9.5,18-1.3,23.9c3,2.2,6.4,1.8,8.7-.7,2.5-2.8,3.3-7.4,2.8-11.9-1.1-10.5-8.6-19.1-14.9-25.8-6.5-6.8-13.1-13.7-20.4-18.6-3.5-2.4-7.3-4.2-11-5.3-4.4-1.2-8.7-1.2-13-.8-8.3.8-16.6,2-24.7,3.9s-15.6,4.5-22.5,9c-3.3,2.2-6.4,4.8-9.2,8-2.9,3.2-5.2,7.2-7.9,10.6-2.5,3.1-5.5,5.7-9.4,5.6s-6.6-1.7-8.3-5.7c-1.8-4.2-1.2-9-1.2-13.3,0-4.2-.8-8.6-3.5-12-7-8.6-15.8-3.2-21.9.6-4,2.5-8,5-12,7.5-1,.6.1,2.8,1.2,2.2h0Z"/>
      <g>
        <path class="st16" d="M489,350.9c1.1.4,110.5,29.9,110.5,29.9l-4,2.5-110.7-14.3,4.2-18.2Z"/>
        <polygon class="st16" points="472.2 353.9 342.6 391.3 350 391.3 483.7 356.6 472.2 353.9"/>
        <polygon class="st16" points="350 391.3 352.4 396.6 484.8 369.1 484.8 354.5 350 391.3"/>
        <g>
          <polygon class="st3" points="711.3 42.4 723 51.5 695.9 369.8 678.4 380.8 711.3 42.4"/>
          <path d="M677.9,381.5l33-339.9,12.4,9.7v.2s-27.1,318.5-27.1,318.5l-18.4,11.5ZM711.6,43.1l-32.8,337,16.7-10.5,27-318-11-8.6Z"/>
        </g>
        <polygon class="st16" points="503.9 357.1 598 459.4 590.5 459.4 498 360 503.9 357.1"/>
        <polygon class="st16" points="590.5 459.4 588 464 484.8 367.5 484.5 357.1 498 360 590.5 459.4"/>
        <polygon class="st16" points="497.7 360.5 503.5 357.1 506.7 314.5 479.4 315.5 497.7 360.5"/>
        <polygon class="st16" points="498.8 324.4 497.7 360.5 484.8 369.1 472.2 353.9 470.9 322.4 498.8 324.4"/>
        <path class="st16" d="M711.3,42.4l-32.9,338.4s-106.8-38-223.8-53.4c-117-15.4-152.8-15.4-152.8-15.4l13.9-212.2s27,2.2,155.2-5.9c102.9-6.5,240.4-51.6,240.4-51.6Z"/>
        <path class="st11" d="M301.8,312.1l13.9-212.2s23.4,1.9,129.8-4.4c-.5,2.1-1,4.2-1.4,6.2-7.8,41,3.6,84.1,25.1,119.8,21.5,35.8,52.5,65,85.5,90.5,28,21.6,57.8,40.8,88.9,57.5-40.8-12.5-112.8-32.1-189-42.1-117-15.4-152.8-15.4-152.8-15.4Z"/>
        <g>
          <path class="st3" d="M706.3,48.5l-31.7,326.4c-23-7.8-117.9-38.5-219.4-51.8-94.6-12.4-135.9-14.8-148.8-15.3l13.3-203.4c2.1,0,5.1.1,9.2.1,20.2,0,61.3-1.1,142.3-6.2,53.5-3.4,116.3-17.3,159.6-28.4,35.2-9,63.5-17.6,75.6-21.4h0ZM711.3,42.4s-137.5,45.1-240.4,51.6c-83.2,5.3-123.8,6.2-142,6.2s-13.2-.3-13.2-.3l-13.9,212.2s35.8,0,152.8,15.4c117,15.4,223.8,53.4,223.8,53.4l32.9-338.4h0Z"/>
          <path d="M678.7,381.3l-.5-.2c-1.1-.4-108.1-38.2-223.7-53.4-115.6-15.2-152.4-15.4-152.8-15.4h-.4v-.4s13.9-212.6,13.9-212.6h.4s3.4.3,13.2.3c20.2,0,61.2-1.1,142-6.2,101.7-6.4,239-51.1,240.3-51.6l.5-.2v.6c0,0-33,338.9-33,338.9ZM302.2,311.7c4.3,0,43.2,1,152.5,15.4,111.9,14.7,215.7,50.5,223.4,53.2l32.8-337.4c-9.6,3.1-141.4,45.2-240,51.5-80.8,5.1-121.9,6.2-142,6.2s-11.7-.2-12.9-.2l-13.8,211.4ZM674.9,375.4l-.4-.2c-26.1-8.8-119-38.6-219.4-51.8-94-12.3-135.3-14.8-148.8-15.3h-.4s0-.4,0-.4l13.3-203.8h.4c2.6,0,5.6.1,9.2.1,20.2,0,61.3-1.1,142.3-6.2,53.5-3.4,116.3-17.3,159.5-28.4,35.8-9.2,64.8-18,75.6-21.4l.5-.2v.6c0,0-31.8,326.9-31.8,326.9ZM306.8,307.5c13.8.5,55.3,3,148.4,15.3,99.8,13.1,192.4,42.7,219.1,51.7l31.6-325.4c-11.2,3.5-39.9,12.3-75.1,21.3-43.3,11.1-106.1,25-159.7,28.4-81,5.1-122.1,6.2-142.3,6.2s-6.3,0-8.8,0l-13.3,202.7Z"/>
        </g>
        <path class="st29" d="M575.7,89.7c42.2-6,72.3-11.1,110.7-24.1,2.2-.7,4.9-1.4,6.5.3,1.3,1.3,1.2,3.4,1,5.2-8.7,73.9-17.4,147.9-26.1,221.8,2.7-66.3,7.3-132.5,13.8-198.5.5-4.8,0-11-4.6-12.3-1.7-.5-3.4-.1-5.1.3-23.1,4.9-46.8,7-70.4,9.1-35.1,3.1-70.2,6.2-105.3,9.3,26.4-4,79.4-11.2,79.4-11.2Z"/>
        <path class="st10" d="M338.7,305.2c-5.3-.4-10.6-.9-15.8-1.8-2-.4-3.9-.9-5.5-2.2-1.6-1.4-2.6-3.4-3.2-5.4-1.7-6-.5-12.3,0-18.4,1.9-22.2,3.7-44.3,5.6-66.5,1.9-22.8,4-45.5,6.1-68.2.5-5.1.9-10.2,1.4-15.2,0,5.6.2,11.2.2,16.8,0,17-.8,34.3-1.4,51.4-.4,11.5-.4,23.1-.6,34.6-.2,14.3-1.2,28.5-1.6,42.7-.2,6.5-.5,12.2,4.7,16.9,3.5,3.2,8,4.9,12.4,6.5,10.7,3.9,21.7,7.8,33,7.8-11,3.7-24.2,1.8-35.6,1Z"/>
        <polygon class="st16" points="505.1 334.7 504.8 339.3 498.2 345 471.7 343 471.2 329.2 505.1 334.7"/>
        <polygon class="st16" points="505.1 335.4 498.4 337.8 471.5 336.6 471.2 329.2 505.1 335.4"/>
        <polygon class="st16" points="599.3 465.5 493.2 365.6 496.8 362.7 599.3 465.5"/>
      </g>
      <g>
        <path class="st25" d="M508.9,146.3h0c0,0,0,0,0,0h-17.3c-1.6,0-2.7,1.9-1.9,3.3l15.3,34.5c.7,1.4,2.6,1.5,3.5.1l19.9-34.5c1-1.5,0-3.4-1.6-3.4h-17.8Z"/>
        <path class="st27" d="M450.7,146h20.5c.5,0,1,.3,1.3.8l30.6,72.1c.5,1.2,2.1,1.3,2.8.2l41.8-72.3c.3-.6.9-.9,1.6-.9h24.9c1.4,0,2.1,1.4,1.4,2.6l-72.7,121.4c-.7,1.1-2.2.9-2.8-.3l-50.8-121.2c-.4-1.1.3-2.3,1.4-2.3Z"/>
      </g>
      <g>
        <g>
          <path class="st14" d="M286.7,440.4l3.1-2.9c1.9-1.8,1.4-3.9-1.1-4.6l-7.5-2.2,5.5,9.8Z"/>
          <path class="st14" d="M286.7,440.8s0,0,0,0c-.1,0-.2,0-.3-.2l-5.5-9.8c0-.1,0-.3,0-.4s.3-.2.4-.1l7.5,2.2c1.3.4,2.2,1.2,2.5,2.2s-.2,2.1-1.2,3.1l-3.1,2.9c0,0-.2.1-.3.1ZM282,431.3l4.8,8.4,2.7-2.6c.8-.8,1.1-1.6,1-2.3s-.9-1.3-1.9-1.6l-6.6-1.9Z"/>
        </g>
        <path class="st3" d="M275.6,432l-89-26.3c-3-.9-7.2.1-9.5,2.3l-21.2,20.1-10.5,2.5,1.8,7.7c.2,1,1.1,1.8,2.6,2.3l98.8,29.2c3,.9,7.2-.1,9.5-2.3l28.5-27.1c1.1-1.1,1.5-2.2,1.3-3.2l-1.8-7.7-10.5,2.5Z"/>
        <rect class="st3" x="252.6" y="461.9" width="1" height="7.8" transform="translate(-101.8 72) rotate(-13.5)"/>
        <path class="st3" d="M145.5,430.6l1.8,7.7c.2,1,1.1,1.8,2.6,2.3l98.8,29.2c1.1.3,2.3.4,3.5.2l-2.4-10-99.2-30.7-5.2,1.2Z"/>
        <path class="st14" d="M251,470.5c-.9,0-1.7-.1-2.4-.3l-98.8-29.2c-1.6-.5-2.6-1.4-2.9-2.6l-1.8-7.7c0-.1,0-.2,0-.3,0,0,.1-.2.2-.2l10.4-2.5,21.1-20c2.3-2.2,6.8-3.3,9.8-2.4l88.9,26.3,10.4-2.5c.1,0,.2,0,.3,0,0,0,.2.1.2.2l1.8,7.7c.3,1.2-.2,2.5-1.4,3.6l-28.5,27.1c-1.8,1.7-4.7,2.7-7.4,2.7ZM146,430.9l1.8,7.3c.2.9,1,1.6,2.3,2l98.8,29.2c2.8.8,6.9-.1,9.1-2.2l28.5-27.1c1-.9,1.4-1.9,1.2-2.8l-1.8-7.3-10.1,2.4c0,0-.1,0-.2,0l-89-26.3c-2.8-.8-6.9.1-9.1,2.2l-21.2,20.1c0,0-.1,0-.2,0l-10.1,2.4Z"/>
        <g>
          <path class="st3" d="M246.8,462.1c3,.9,7.2-.1,9.5-2.3l28.5-27.1c2.2-2.1,1.6-4.6-1.3-5.5l-98.8-29.2c-3-.9-7.2.1-9.5,2.3l-28.5,27.1c-2.2,2.1-1.6,4.6,1.3,5.5l98.8,29.2Z"/>
          <path class="st14" d="M249.2,462.8c-.9,0-1.7-.1-2.4-.3l-98.8-29.2c-1.6-.5-2.6-1.4-2.9-2.6-.3-1.2.2-2.5,1.4-3.6l28.5-27.1c2.3-2.2,6.8-3.3,9.8-2.4l98.8,29.2c1.6.5,2.6,1.4,2.9,2.6.3,1.2-.2,2.5-1.4,3.6l-28.5,27.1c-1.8,1.7-4.7,2.7-7.4,2.7ZM182.4,398.1c-2.5,0-5.2.9-6.8,2.5l-28.5,27.1c-1,.9-1.4,1.9-1.2,2.8.2.9,1,1.6,2.3,2l98.8,29.2h0c2.8.8,6.9-.1,9.1-2.2l28.5-27.1c1-.9,1.4-1.9,1.2-2.8-.2-.9-1-1.6-2.3-2l-98.8-29.2c-.7-.2-1.5-.3-2.3-.3Z"/>
        </g>
        <path class="st19" d="M181.8,441.1c2,.6,4.8,0,6.3-1.5l24.4-23.2c1.5-1.4,1.1-3-.9-3.6l-32.3-9.5c-2-.6-4.8,0-6.3,1.5l-24.4,23.2c-1.5,1.4-1.1,3,.9,3.6l32.3,9.5Z"/>
        <path class="st19" d="M248,460.7c2,.6,4.8,0,6.3-1.5l24.4-23.2c1.5-1.4,1.1-3-.9-3.6l-32.3-9.5c-2-.6-4.8,0-6.3,1.5l-24.4,23.2c-1.5,1.4-1.1,3,.9,3.6l32.3,9.5Z"/>
        <g>
          <g>
            <path class="st19" d="M192.1,415.8c.4-.4.5-.8.5-1.1l-.5-2.2-2.9.7-1.6-.5c-1.1-.3-2.6,0-3.4.8l-4.6,4.3-6-1.8c-1.1-.3-2.6,0-3.4.8l-1.2,1.2-2.9.7.5,2.2c0,.4.4.6.9.8l6,1.8-2.7,2.6-2.9.7.5,2.2c0,.4.4.6.9.8l4.1,1.2c1.1.3,2.6,0,3.4-.8l4.6-4.3,6,1.8c1.1.3,2.6,0,3.4-.8l3.1-3c.4-.4.5-.8.5-1.1l-.5-2.2-2.9.7-3.6-1.1,4.6-4.3Z"/>
            <path class="st14" d="M174.4,431.5c-.3,0-.7,0-1-.1l-4.1-1.2c-.6-.2-1.1-.6-1.2-1.1l-.5-2.2c0-.1,0-.2,0-.3,0,0,.1-.2.2-.2l2.8-.7,2.1-2-5.4-1.6c-.7-.2-1.1-.6-1.2-1.1l-.5-2.2c0-.2,0-.4.3-.5l2.8-.7,1.2-1.1c.9-.9,2.6-1.3,3.8-.9l5.8,1.7,4.4-4.2c.9-.9,2.6-1.3,3.8-.9l1.5.5,2.8-.7c.1,0,.2,0,.3,0s.2.1.2.2l.5,2.2c.1.5,0,1.1-.6,1.5l-4.1,3.9,2.8.8,2.8-.7c.1,0,.2,0,.3,0,0,0,.2.1.2.2l.5,2.2c.1.5,0,1.1-.6,1.5l-3.1,3c-.9.9-2.6,1.3-3.8.9l-5.8-1.7-4.4,4.2c-.7.6-1.8,1-2.8,1ZM168.4,427.1l.4,1.8c0,.2.3.4.7.5l4.1,1.2c.9.3,2.3,0,3-.7l4.6-4.3c.1,0,.3-.1.4,0l6,1.8c.9.3,2.3,0,3-.7l3.1-3c.3-.3.4-.5.3-.8l-.4-1.8-2.5.6c0,0-.1,0-.2,0l-3.6-1.1c-.1,0-.2-.2-.3-.3,0-.1,0-.3.1-.4l4.6-4.3h0c.3-.3.4-.5.3-.8l-.4-1.8-2.5.6c0,0-.1,0-.2,0l-1.6-.5c-.9-.3-2.3,0-3,.7l-4.6,4.3c-.1,0-.3.1-.4,0l-6-1.8c-.9-.3-2.3,0-3,.7l-1.2,1.2c0,0-.1,0-.2,0l-2.5.6.4,1.8c0,.2.3.4.7.5l6,1.8c.1,0,.2.2.3.3,0,.1,0,.3-.1.4l-2.7,2.6c0,0-.1,0-.2,0l-2.5.6Z"/>
          </g>
          <path class="st14" d="M180.7,426.6l.8-.8,6,1.8c.5.2,1.1.1,1.7,0l-.8-3.3-7.5-.7-.3,3Z"/>
          <path class="st14" d="M174.3,427.4l-4.5-1.1-1.8.4.5,2.2c0,.4.4.6.9.8l4.1,1.2c.5.1,1,.1,1.6,0l-.9-3.6Z"/>
          <g>
            <path class="st14" d="M193.5,421.7c.8-.8.6-1.6-.5-1.9l-6-1.8,4.6-4.3c.8-.8.6-1.6-.5-1.9l-4.1-1.2c-1.1-.3-2.6,0-3.4.8l-4.6,4.3-6-1.8c-1.1-.3-2.6,0-3.4.8l-3.1,3c-.8.8-.6,1.6.5,1.9l6,1.8-4.6,4.3c-.8.8-.6,1.6.5,1.9l4.1,1.2c1.1.3,2.6,0,3.4-.8l4.6-4.3,6,1.8c1.1.3,2.6,0,3.4-.8l3.1-3Z"/>
            <path class="st14" d="M173.8,429.3c-.3,0-.7,0-1-.1l-4.1-1.2c-.7-.2-1.1-.6-1.2-1.1-.1-.5,0-1.1.6-1.5l4.1-3.9-5.4-1.6c-.7-.2-1.1-.6-1.2-1.1-.1-.5,0-1.1.6-1.5l3.1-3c.9-.9,2.6-1.3,3.8-.9l5.8,1.7,4.4-4.2c.9-.9,2.6-1.3,3.8-.9l4.1,1.2c.7.2,1.1.6,1.2,1.1.1.5,0,1.1-.6,1.5l-4.1,3.9,5.4,1.6c.7.2,1.1.6,1.2,1.1s0,1.1-.6,1.5h0l-3.1,3c-.9.9-2.6,1.3-3.8.9l-5.8-1.7-4.4,4.2c-.7.6-1.8,1-2.8,1ZM172.1,414.1c-.8,0-1.7.3-2.3.8l-3.1,3c-.3.3-.4.5-.3.8,0,.2.3.4.7.5l6,1.8c.1,0,.2.2.3.3,0,.1,0,.3-.1.4l-4.6,4.3c-.3.3-.4.5-.3.8,0,.2.3.4.7.5l4.1,1.2c.9.3,2.3,0,3-.7l4.6-4.3c.1,0,.3-.1.4,0l6,1.8c.9.3,2.3,0,3-.7l3.1-3c.3-.3.4-.5.3-.8,0-.2-.3-.4-.7-.5l-6-1.8c-.1,0-.2-.2-.3-.3,0-.1,0-.3.1-.4l4.6-4.3c.3-.3.4-.5.3-.8,0-.2-.3-.4-.7-.5l-4.1-1.2c-.9-.3-2.3,0-3,.7l-4.6,4.3c-.1,0-.3.1-.4,0l-6-1.8c-.2,0-.5,0-.7,0ZM193.5,421.7h0,0Z"/>
          </g>
          <ellipse class="st17" cx="179.9" cy="419.6" rx="1.9" ry="1.1" transform="translate(-93.1 53.7) rotate(-13.5)"/>
          <polygon class="st3" points="183.8 414.1 186.5 414.9 186.7 413 183.8 414.1"/>
          <polygon class="st3" points="175.8 425.1 173.1 424.3 172.9 426.2 175.8 425.1"/>
          <polygon class="st3" points="185.8 422.7 187.9 420.8 188.9 422.4 185.8 422.7"/>
          <polygon class="st3" points="173.8 416.5 171.7 418.5 170.6 416.9 173.8 416.5"/>
        </g>
        <g>
          <path class="st3" d="M239.4,437.7l13.2-3.2c4.9-1.2,9.4.2,10.1,3,.7,2.8-2.7,6.1-7.6,7.2l-13.2,3.2c-4.9,1.2-9.4-.2-10.1-3-.7-2.8,2.7-6.1,7.6-7.2Z"/>
          <g>
            <path class="st19" d="M258.9,437.2c-.4-1.7-3.1-2.5-6.1-1.8-3,.7-5,2.7-4.6,4.4s0,0,0,0l.5,2c.4,1.7,3.1,2.5,6.1,1.8,3-.7,5-2.7,4.6-4.4l-.5-2h0Z"/>
            <path class="st14" d="M248.1,439.7l.5,2c.4,1.7,3.1,2.5,6.1,1.8l-1.2-5.1-5.4,1.3Z"/>
            <ellipse class="st17" cx="253.5" cy="438.5" rx="5.5" ry="3.2" transform="translate(-95.4 71.4) rotate(-13.5)"/>
            <path class="st14" d="M252.6,444.2c-.7,0-1.4,0-2-.3-1.3-.4-2.1-1.1-2.4-2.1l-.5-2c-.2-1,.2-2,1.2-3,.9-.9,2.3-1.6,3.8-1.9,1.5-.4,3-.4,4.2,0,1.3.4,2.1,1.1,2.4,2.1l.5,2c.5,2-1.7,4.1-4.9,4.9-.8.2-1.5.3-2.2.3ZM254.9,435.5c-.7,0-1.3,0-2,.2-2.7.6-4.7,2.4-4.3,3.9l.5,2c.2.7.8,1.2,1.8,1.5,1.1.3,2.4.3,3.8,0,2.7-.6,4.7-2.4,4.3-3.9l-.5-2h0c-.2-.7-.8-1.2-1.8-1.5-.5-.2-1.1-.2-1.8-.2Z"/>
          </g>
          <g>
            <path class="st19" d="M245.7,440.3c-.4-1.7-3.1-2.5-6.1-1.8-3,.7-5,2.7-4.6,4.4s0,0,0,0l.5,2c.4,1.7,3.1,2.5,6.1,1.8,3-.7,5-2.7,4.6-4.4l-.5-2h0Z"/>
            <path class="st14" d="M235,442.9l.5,2c.4,1.7,3.1,2.5,6.1,1.8l-1.2-5.1-5.4,1.3Z"/>
            <ellipse class="st14" cx="240.3" cy="441.6" rx="5.5" ry="3.2" transform="translate(-96.5 68.4) rotate(-13.5)"/>
            <path class="st14" d="M239.4,447.4c-.7,0-1.4,0-2-.3-1.3-.4-2.1-1.1-2.4-2.1l-.5-2c-.5-2,1.7-4.1,4.9-4.9,3.2-.8,6.1.1,6.6,2.1l.5,2c.5,2-1.7,4.1-4.9,4.9-.8.2-1.5.3-2.2.3ZM241.7,438.7c-.6,0-1.3,0-2,.2-2.7.6-4.7,2.4-4.3,3.9l.5,2c.2.7.8,1.2,1.8,1.5,1.1.3,2.4.3,3.8,0,2.7-.6,4.7-2.4,4.3-3.9l-.5-2h0c-.3-1.1-1.8-1.8-3.6-1.8Z"/>
          </g>
        </g>
        <g>
          <g>
            <path class="st3" d="M213.5,429.7h0s-8.1-2.4-8.1-2.4c-1-.3-2.5,0-3.3.8-.4.4-.5.8-.5,1.1l.4,1.8c0,.3.4.6.9.8l8,2.4-.4-1.8,2.9-2.7Z"/>
            <path class="st14" d="M211,434.7s0,0-.1,0l-8-2.4c-.6-.2-1.1-.6-1.2-1.1l-.4-1.8c-.1-.5,0-1,.6-1.5.9-.9,2.5-1.2,3.7-.9l8.1,2.4c.1,0,.2.2.3.3,0,.1,0,.3-.1.4l-2.8,2.5.4,1.6c0,.1,0,.3-.1.4,0,0-.2.1-.3.1ZM204.6,427.6c-.8,0-1.7.3-2.2.8-.3.3-.4.5-.3.7l.4,1.8c0,.2.3.4.6.5l7.3,2.2-.3-1.2c0-.1,0-.3.1-.4l2.4-2.2-7.4-2.2c-.2,0-.5,0-.7,0Z"/>
          </g>
          <g>
            <path class="st17" d="M222.9,436c.4-.4.5-.8.5-1.1l-.4-1.8c0-.3-.4-.6-.9-.8l-8.5-2.5h0s-2.9,2.7-2.9,2.7l.4,1.8,8.6,2.5c1,.3,2.5,0,3.3-.8Z"/>
            <path class="st14" d="M220.4,437.3c-.3,0-.7,0-.9-.1l-8.6-2.5c-.1,0-.2-.2-.3-.3l-.4-1.8c0-.1,0-.3.1-.4l2.9-2.7c.1,0,.2-.1.4,0l8.5,2.5c.6.2,1.1.6,1.2,1.1l.4,1.8c.1.5,0,1-.6,1.5t0,0c-.7.6-1.8,1-2.8,1ZM211.3,433.9l8.3,2.5c.9.3,2.2,0,2.9-.7h0c.3-.3.4-.5.3-.7l-.4-1.8c0-.2-.3-.4-.6-.5l-8.3-2.4-2.6,2.4.3,1.4ZM222.9,436h0,0Z"/>
          </g>
          <path class="st14" d="M219.9,435.5c-.3,0-.7,0-.9-.1h0l-16.5-4.9c-.6-.2-1.1-.6-1.2-1.1-.1-.5,0-1,.6-1.5.9-.9,2.5-1.2,3.7-.9l16.5,4.9c.6.2,1.1.6,1.2,1.1.1.5,0,1-.6,1.5-.7.6-1.8,1-2.8,1ZM219.2,434.6c.9.3,2.2,0,2.9-.7.3-.3.4-.5.3-.7,0-.2-.3-.4-.6-.5l-16.5-4.9c-.9-.3-2.2,0-2.9.7-.3.3-.4.5-.3.7s.3.4.6.5l16.5,4.9Z"/>
        </g>
      </g>
      <g>
        <g>
          <path d="M563.2,517h4.7s0,.8,0,.8l-1,1.3-.9-.7.3-.3h-3.1s0-1.1,0-1.1Z"/>
          <path d="M563.2,513.1h1.1s0-.7,0-.7h1.1s0,.7,0,.7h2.6s0,1,0,1l-2.9,2h-.8s0-1.9,0-1.9h-1.1s0-1.1,0-1.1ZM565.4,514.6l.6-.4h-.6s0,.4,0,.4Z"/>
        </g>
        <g>
          <path class="st8" d="M628.2,483.7c1.3-.2,2.8-.5,3.4-1.7.3-.6.3-1.4.3-2.1,0-1.7-.6-3.5-1.9-4.4-1.7-1.2-3.8-.4-5.6.4-4.7,2.1-9.8,3.1-15,3.2-2.2,0-4.4-.1-6.6.4-.6.1-1.2.4-1.4.9-.2.3-.2.8-.2,1.2,0,2.2.9,4.4,2.2,6.2,1.3,1.8,3,3.1,4.8,4.3,1.7,1.1,3.6,2,5.5,2.2,3.6.4,6.3-1.7,6.9-5.6.6-4.1,4.3-4.5,7.5-4.9Z"/>
          <path class="st23" d="M615.4,478.6c.5.3,1,.6,1.5,1,1.3.9,2.5,2,3.9,2.8.3.2.6.3.9.2.4-.2.4-.7.3-1.2-.1-.5-.3-.9-.4-1.3,0-.5.3-1,.7-.8.3,0,.4.5.5.8.1.6.2,1.3.6,1.8s1.1.8,1.4.4c.3-.3.3-1,0-1.4-.2-.5-.4-1-.4-1.5,0-.5.6-.9,1-.6.2.1.2.4.3.6,0,.5.1,1,.2,1.5.1.5.5,1,.9,1.1.6.1,1.1-.5,1.2-1.2s-.2-1.4-.4-2c-.1-.5,0-1.2.3-1.1.3,0,.4.4.5.7.2.6.4,1.2.6,1.8,0,.2.2.4.3.5.1,0,.3,0,.4,0,.8-.2,1.5-.8,1.8-1.7,0,.3,0,.7,0,1,0,.7,0,1.5-.3,2.1-.6,1.3-2.1,1.6-3.4,1.7-3.2.4-6.9.9-7.5,4.9-.4,2.7-1.8,4.6-3.8,5.3-3.4-2-6.4-5.3-7.8-9.4-.6-1.6-.9-3.5-.2-4.9,0-.2.2-.4.3-.5,0,0,.1,0,.2,0,2,0,4-.2,5.9-.5Z"/>
        </g>
        <g>
          <path class="st3" d="M603.7,475.7c10.2,3.2,19.3,10,25.3,18.9.9,1.4,1.8,2.8,2.2,4.4,1.2,4.6-1.7,9.4-5.5,12.1-3.9,2.7-8.6,3.8-13.1,5.1-13.6,3.8-26.6,9.6-37.9,18.1-3.4,2.6-6.6,5.4-10.4,7.3-9.5,4.9-21,3.7-31.6,1.9-6.8-1.2-13.7-2.6-20-5.4-6.3-2.9-12.1-7.3-15.5-13.4-.6-1-1.1-2.2-1.1-3.4-.1-1.9.9-3.7,1.9-5.3,5.3-8.4,11.4-16.4,18.2-23.7,3.5-3.8,7.2-7.4,11.6-10.1,4.2-2.6,8.9-4.2,13.7-5.5,20.5-5.8,41.8-7.3,62.3-.9Z"/>
          <path d="M547.6,545.4c-5,0-10-.7-15-1.6-6.3-1.1-13.5-2.5-20.1-5.5-5-2.3-11.7-6.4-15.6-13.6-.5-1-1.1-2.2-1.2-3.5-.1-2,.9-3.8,2-5.5,5.3-8.4,11.5-16.4,18.2-23.8,3.2-3.4,7.1-7.3,11.6-10.1,4.5-2.8,9.5-4.4,13.8-5.6,22.8-6.4,43.9-6.8,62.5-.9h0c10.4,3.2,19.4,10,25.5,19,.9,1.4,1.8,2.8,2.2,4.5,1.3,5-1.9,9.9-5.7,12.5-3.5,2.4-7.7,3.6-11.8,4.7l-1.5.4c-14.6,4.1-27.2,10.1-37.7,18.1-.8.6-1.5,1.2-2.2,1.7-2.6,2-5.2,4.1-8.2,5.6-5.2,2.7-10.9,3.6-16.8,3.5ZM576.3,471.9c-11,0-22.7,1.6-34.8,5.1-4.2,1.2-9.2,2.8-13.6,5.5-4.5,2.8-8.3,6.6-11.5,10-6.7,7.3-12.9,15.3-18.2,23.7-1,1.7-2,3.3-1.9,5.1,0,1.2.6,2.3,1.1,3.2,3.8,7,10.4,11.1,15.3,13.3,6.5,3,13.7,4.3,20,5.4,10.8,1.9,22.1,2.9,31.4-1.9,2.9-1.5,5.5-3.6,8.1-5.5.8-.6,1.5-1.2,2.3-1.7,10.6-8,23.3-14.1,38-18.2l1.5-.4c4-1.1,8.2-2.2,11.5-4.6,3.4-2.4,6.6-7.1,5.4-11.7-.4-1.6-1.3-3-2.1-4.3-6-8.9-14.9-15.5-25.1-18.7-8.6-2.7-17.7-4.1-27.3-4.1Z"/>
        </g>
        <g>
          <path class="st3" d="M499.1,514.1c1.9,5.4,5.7,10.2,10.8,13,3.6,2,7.8,3.1,11.9,3.7,4.3.6,8.6.8,12.8-.2,4.2-1,8-3,11.6-5.4,7.4-4.9,13.7-11.3,20.7-16.8,7-5.5,14.9-10.3,23.7-11.3,10.6-1.2,20.9,3.2,31.4,5,3.4.6,7.4.6,9.3-2.4.6,4.3-2.1,8.6-5.7,11.1-3.9,2.7-8.6,3.8-13.1,5.1-13.6,3.8-26.6,9.6-37.9,18.1-3.4,2.6-6.6,5.4-10.4,7.3-9.5,4.9-21,3.7-31.6,1.9-6.8-1.2-13.7-2.6-20-5.4-6.3-2.9-12.1-7.3-15.5-13.4-.6-1-1.1-2.2-1.1-3.4-.1-1.9.9-3.7,1.9-5.3.4-.6.8-1.2,1.1-1.8Z"/>
          <path d="M547.6,545.4c-5,0-10-.7-15-1.6-6.3-1.1-13.5-2.5-20.1-5.5-5-2.3-11.7-6.4-15.6-13.6-.5-1-1.1-2.2-1.2-3.5-.1-2,.9-3.8,2-5.5.4-.6.8-1.2,1.1-1.8l.4-.6.3.7c1.9,5.5,5.8,10.1,10.6,12.8,3.2,1.8,6.9,2.9,11.8,3.6,5,.7,9,.7,12.7-.2,3.6-.8,7.3-2.5,11.5-5.4,4.6-3.1,8.8-6.7,12.9-10.3,2.5-2.2,5.1-4.4,7.7-6.5,8.7-6.9,16.3-10.5,23.9-11.3,7.3-.8,14.6,1,21.7,2.8,3.2.8,6.6,1.7,9.9,2.2,4.5.8,7.5,0,9-2.2l.5-.8v1c.8,4.7-2.4,9.1-5.7,11.5-3.5,2.5-7.7,3.6-11.8,4.7l-1.5.4c-14.6,4.1-27.2,10.1-37.7,18.1-.8.6-1.5,1.1-2.2,1.7-2.6,2-5.2,4.1-8.2,5.6-5.2,2.7-10.9,3.6-16.8,3.5ZM499,515c-.2.4-.5.8-.7,1.1-1,1.7-2,3.3-1.9,5.1,0,1.2.6,2.3,1.1,3.2,3.8,7,10.4,11.1,15.3,13.3,6.5,3,13.7,4.4,20,5.4,10.8,1.9,22.1,2.9,31.4-1.9,2.9-1.5,5.5-3.6,8.1-5.5.7-.6,1.5-1.2,2.3-1.7,10.6-8,23.3-14.1,38-18.2l1.5-.4c4-1.1,8.2-2.2,11.6-4.6,3-2.1,5.7-5.8,5.6-9.9-1.8,1.9-4.8,2.5-9.1,1.8-3.3-.6-6.7-1.4-9.9-2.2-7-1.8-14.2-3.6-21.4-2.8-7.5.8-14.9,4.4-23.5,11.2-2.6,2.1-5.2,4.3-7.7,6.4-4.1,3.6-8.4,7.3-13,10.4-4.3,2.9-8,4.6-11.7,5.5-3.7.9-7.9.9-13,.2-5-.7-8.8-1.9-12-3.7-4.8-2.7-8.6-7.2-10.7-12.5Z"/>
        </g>
        <path class="st22" d="M532.9,543.5c-6.8-1.2-13.7-2.6-20-5.4-1-.4,15.7,4.8,14.7,4.3,4.8.9,3.5,1,8.4,1.5,12.2,1.3,14.2-4.2,23.8-11.9,3.1-2.5,5.7-5.7,8.3-8.8,7.9-9.1,18.3-17.5,30.3-17.3,9.3.2,18,5.5,27.3,4.7.4,0,.8,0,1.1-.1-.3.3-.6.5-1,.7-3.9,2.7-8.6,3.8-13.1,5.1-13.6,3.8-26.6,9.6-37.9,18.1-3.4,2.6-6.6,5.4-10.4,7.3-9.5,4.9-21,3.7-31.6,1.9Z"/>
        <g>
          <path class="st10" d="M497.6,516.5c.3,4.7,2.7,9.3,6.5,12.1,1.5,1.1,3.1,1.9,4.8,2.7,8.2,3.9,16.8,7.2,25.8,8.5,9,1.3,18.4.6,26.7-3.2,6.1-2.8,11.3-7,16.8-10.7,7.5-4.9,16-8.7,24.9-10.3,4-.7,8-.8,12.1-.6-.8.2-1.6.4-2.5.7-2.3.6-4.5,1.3-6.7,2.1-3,0-5.9.5-8.8,1.1-8.2,1.9-15.8,6.1-22.6,11-5.5,4-10.8,8.6-17.3,10.6-3.4,1-7.3,2.5-10.9,2.5-11.6,0-22.4-2.5-33.3-7.1-4.7-2-9.9-4.6-13.2-8.5-1.9-2.2-3.2-5.1-3.5-8,.2-1,.7-1.9,1.2-2.8Z"/>
          <path class="st22" d="M546.1,543.4c-11.2,0-22.1-2.4-33.2-7.2-4.4-1.9-9.9-4.6-13.4-8.6-2-2.3-3.3-5.4-3.6-8.3,0,0,0,0,0-.1.3-1.2.8-2.3,1.2-3,.1-.2.3-.3.5-.2.2,0,.4.2.4.5.3,4.6,2.7,9,6.3,11.7,1.5,1.1,3.1,1.9,4.7,2.7,9.7,4.6,17.8,7.3,25.6,8.4,9.7,1.4,18.8.3,26.4-3.2,4.2-1.9,8.1-4.7,11.9-7.3,1.6-1.1,3.3-2.3,4.9-3.4,8.3-5.4,16.7-8.9,25.1-10.4,3.6-.6,7.5-.8,12.2-.6.2,0,.4.2.5.4s-.1.5-.4.5l-2.5.7c-2.2.6-4.5,1.3-6.7,2.1,0,0,0,0-.1,0-2.9,0-5.8.4-8.7,1.1-7.3,1.7-14.7,5.3-22.5,11-1,.7-2,1.5-3,2.2-4.4,3.3-9,6.8-14.5,8.4-.6.2-1.3.4-1.9.6-2.9.9-6.1,1.9-9.1,1.9-.1,0-.2,0-.3,0ZM496.9,519.3c.3,2.7,1.5,5.5,3.3,7.6,3.4,3.9,8.8,6.5,13.1,8.4,11.1,4.8,21.9,7,33.1,7.1,2.8,0,5.9-1,8.8-1.9.7-.2,1.3-.4,1.9-.6,5.2-1.6,9.8-5,14.1-8.3,1-.8,2-1.5,3-2.3,7.9-5.7,15.4-9.4,22.8-11.1,2.9-.7,5.9-1.1,8.8-1.2,1.9-.7,3.9-1.3,5.9-1.8-3.2,0-6,.2-8.6.7-8.2,1.4-16.5,4.9-24.7,10.2-1.6,1.1-3.3,2.2-4.9,3.3-3.8,2.7-7.7,5.4-12,7.4-7.8,3.6-17.1,4.7-27,3.3-7.9-1.2-16.2-3.9-25.9-8.5-1.6-.8-3.4-1.6-4.9-2.8-3.4-2.5-5.8-6.5-6.5-10.7-.2.4-.3.8-.4,1.2Z"/>
        </g>
        <path class="st22" d="M557.8,473c.8.4,1.5.9,2.2,1.4,4.7,3.4,9.3,7.1,13.6,11,1,.9,2,1.8,3.2,2.3,1.9.7,4.1.3,6.1,0,13.2-2,26.4,2.2,39.3,5.8,1.7.5,3.7.8,4.9-.4.2-.2.3-.4.4-.6.4.5.8,1,1.1,1.6-.2.5-.6.8-1.1,1.1-1.3.6-2.8.2-4.2-.2-6.6-1.8-13.1-4-19.9-5.3-6.7-1.3-13.8-1.7-20.4,0-1.1.3-2.1.6-3.2.7-2.6.2-5.1-1.1-7.1-2.7-2-1.7-3.6-3.8-5.4-5.7-3.5-3.7-7.9-6.7-12.6-8.6,1-.2,2-.3,3-.5Z"/>
        <path class="st22" d="M612.1,504.2c-.3.2-.7,0-1.1,0-6-1.5-12.3-2.4-18.3-.8-.7.2-1.6.4-2.2-.2-.2-.2-.4-.6-.5-.9-.4-1.3-.8-2.7-1.1-4,0-.2,0-.4,0-.5.1-.1.4,0,.5.1s.1.3.2.5c.2,1,.6,1.9,1.5,2.4.5.2,1.1.2,1.6.2,3.8,0,7.5-.3,11.2.4,1.9.4,3.8,1,5.7,1.5.5.1,1.1.3,1.7.2.6-.1,1.2-2.5,1.7-2.8.4.4-.6,3.7-1.1,4Z"/>
        <path class="st22" d="M589.5,502.6c0,.3,0,.7-.2.9-.1.2-.4.2-.6.3-2.5.9-4.9,1.7-7.2,2.9-4.1,2.3-7.4,5.8-11.6,8-.7.4-1.6.7-2.3.2-.3-.2-.4-.5-.6-.8-.7-1.6-1.2-3.3-1.4-5,.6,1.2,2,2.1,3.4,2,1.5,0,2.7-1,3.9-1.9,3.2-2.4,6.6-4.8,10.6-5.7,1.5-.3,3-.5,4.4-.9.2,0,.4-.1.5-.2.2-.2.2-.4.3-.6.1-.8-.9-3.3-1-4.1.1,1.2,1.6,3.7,1.7,4.9Z"/>
        <path class="st22" d="M614.7,482.3c-1.1-.3-2.2-.6-3.4-.9-1.4-.4-2.8-.7-4.3-1.1-2.6-.7-5.3-1.4-8-1.7-2.9-.4-5.9-.3-8.8.4-.9.2-1.8.5-2.6.3-.4-.1-.7-.3-1.1-.5-1.6-1-3-2.3-4.1-3.9-.1-.2-.2-.4-.1-.5,0,0,.2-.1.3-.2,1.7-.7,3.5-.7,5.3-.8,3.8,0,7.6,0,11.2,1,3.2.9,6.2,2.4,9.4,3.5,1.7.6,3.5,1.1,5.2,1.8,1.1.4,2.1.9,2.9,1.7.6.5,1.5,1.2,1.4,2.1-1-.3-2.1-.8-3.1-1.1Z"/>
        <g>
          <path class="st28" d="M593.2,477.6c-1.5,0-3-.2-4.6,0-3.4.3-5.2-3.4-5.2-3.4,0,0,.9-3.8,3.2-5.1,3.4-1.9,7.6-1.9,11.5-1.4,3.9.5,7.8,1.5,11.2,3.5,5.8,3.5,8.2,9.5,8,11.4-1.8-.9-3.7-1.7-5.7-2.3-2-.6-4-1.2-6-1.6-4.1-.8-8.3-1.2-12.5-1.1Z"/>
          <path class="st14" d="M617.4,483.1c0,0-.2,0-.2,0-1.7-.9-3.6-1.7-5.6-2.3-1.9-.6-3.9-1.2-6-1.6-4.1-.8-8.2-1.2-12.4-1h0c-.7,0-1.4,0-2.1,0-.8,0-1.7,0-2.5,0-3.7.3-5.6-3.5-5.7-3.7,0-.1,0-.2,0-.3,0-.2,1-4,3.5-5.4,3-1.7,6.8-2.1,11.8-1.5,4.6.6,8.3,1.7,11.4,3.6,5.8,3.6,8.5,9.7,8.2,11.9,0,.2-.1.3-.3.4,0,0-.2,0-.2,0ZM595.3,477.1c3.5,0,7,.4,10.5,1.1,2,.4,4.1,1,6.1,1.6,1.7.6,3.5,1.3,5,2-.3-2.3-2.8-7.2-7.7-10.2-2.9-1.8-6.5-2.9-11-3.5-4.9-.6-8.4-.2-11.2,1.4-1.9,1-2.8,3.9-3,4.6.4.7,1.9,3.1,4.6,2.9.9,0,1.7,0,2.6,0,.7,0,1.3,0,2,0h0c.7,0,1.4,0,2.1,0Z"/>
        </g>
        <path class="st9" d="M586.7,469c2-1.1,4.2-1.6,6.5-1.7-.1.3-.1.6,0,.8.4,1,1.7,1,2.8,1.1,1,0,2.2.4,2.6,1.3-2.3,0-4.5.9-6.3,2.2-.2.1-.4.3-.5.5-.2.4,0,.8.4,1,.3.2.7.3,1.1.4,4.5.8,9,1.1,13.5,2,3.6.7,7.2,1.9,10.3,3.9.2.8.3,1.4.3,1.9-1.8-.9-3.7-1.7-5.7-2.3-2-.6-4-1.2-6-1.6-4.1-.8-8.3-1.2-12.5-1.1-1.5,0-3-.2-4.6,0-3.4.3-5.2-3.4-5.2-3.4,0,0,.9-3.8,3.2-5.1Z"/>
        <path class="st4" d="M601.3,468.7c1.3.3,2.5.7,3.8,1.2,1,.4,2.1.8,3.1,1.3,3,1.5,5.4,4.1,6.7,7.1,0,.2,0,.4-.1.4-1-1.4-1.9-2.8-3.2-3.8-.9-.7-1.8-1.3-2.8-1.9-3.5-2-7.3-3.9-11.4-3.9-1.5,0-1.5-1,0-.9,1.3,0,2.7.2,4,.5Z"/>
        <path class="st1" d="M620.1,494.5c-5.9-.8-11.8-1.8-17.8-1.8-9.6,0-19.1,2.2-28.7,3.6-9.5,1.4-19.6,1.7-28.5-2-4.4-1.8-8.7-5.1-9.9-9.7-.1-.4-.2-.9,0-1.4.3-.7,1.1-1.1,1.9-1.3,4.7-1.2,9.6,0,14.3,1.1,7.2,1.7,14.6,3.4,22,2.8,8.6-.7,16.7-4.5,25.3-4.7,6-.1,14.4,1.1,19.6,4.3,3,1.8,9.3,10.1,1.8,9.1Z"/>
        <path class="st1" d="M567.9,490.4c7.7,0,15.5-.4,23.2-1.3,2.3-.3,4.7-.6,7-.1-1.7.5-3.5.6-5.3.7-7,.6-13.7,2.7-20.6,3.9-6.9,1.2-14.3,1.2-20.4-2.2-1.5-.9-3-2-3.7-3.6-.8-1.9,2.6-1.4,3.5-.9,1.4.7,2.2,1.6,3.8,2.1,4,1.2,8.2,1.4,12.4,1.4Z"/>
        <g>
          <path class="st10" d="M513.7,504.7c-4.3,7-4,13.4.5,14.5,4.5,1,11.7-3.8,15.9-10.7,4.3-7,4-13.4-.5-14.5-4.5-1-11.7,3.8-15.9,10.7Z"/>
          <path class="st22" d="M515.4,519.9c-.5,0-.9,0-1.3-.1-1.6-.4-2.8-1.4-3.4-2.9-1.3-3-.3-7.6,2.6-12.3h0c4.4-7.1,11.8-12,16.5-10.9,1.6.4,2.8,1.4,3.4,2.9,1.3,3,.3,7.6-2.6,12.3-4,6.5-10.4,11.1-15.1,11.1ZM528.3,494.4c-4.3,0-10.4,4.4-14.2,10.6h0c-2.7,4.4-3.7,8.8-2.5,11.4.5,1.2,1.4,2,2.7,2.3,4.3,1,11.2-3.7,15.4-10.5,2.7-4.4,3.7-8.8,2.5-11.4-.5-1.2-1.4-2-2.7-2.3-.4,0-.8-.1-1.2-.1ZM513.7,504.7h0s0,0,0,0Z"/>
        </g>
        <g>
          <path class="st10" d="M515.2,504.9c-3.3,5.4-3.1,10.4.4,11.2,3.5.8,9-2.9,12.3-8.3,3.3-5.4,3.1-10.4-.4-11.2s-9,2.9-12.3,8.3Z"/>
          <path class="st22" d="M516.5,516.7c-.4,0-.7,0-1.1-.1-1.3-.3-2.2-1.1-2.7-2.3-1-2.4-.2-6,2-9.6,3.4-5.6,9.1-9.3,12.8-8.5,1.3.3,2.2,1.1,2.7,2.3,1,2.4.2,6-2,9.6-3.1,5.1-8,8.6-11.7,8.6ZM526.5,497c-3.3,0-8,3.4-10.9,8.1-2.1,3.3-2.8,6.7-1.9,8.7.4.9,1.1,1.5,2,1.7,3.3.8,8.6-2.9,11.8-8,2.1-3.3,2.8-6.7,1.9-8.7-.4-.9-1.1-1.5-2-1.7-.3,0-.6,0-.9-.1Z"/>
        </g>
        <path class="st0" d="M530,505.9c-.9,2.2-2.1,4.5-4.1,5.6-.3.2-.6.3-.9.2-.4-.1-.6-.7-.6-1.1-.2-1.4-.3-2.9-.2-4.4,0-2.5.3-5.1,1-7.5.4-1.2.9-2.4,1.9-3.2,1.1-.8,3.1-1.2,3.9.2,1,1.8.7,4.4.3,6.3-.3,1.3-.7,2.5-1.2,3.7Z"/>
        <path class="st7" d="M530.2,498.2c0,2.7-.8,5.3-2,7.7-.1.2-.3.5-.6.4-.2,0-.2-.4-.2-.6.3-2.3.6-4.5.9-6.8,0-.6,0-2.3.7-2.5,1-.3,1.1,1.3,1.1,1.9Z"/>
      </g>
      <g>
        <g>
          <g>
            <g>
              <path class="st3" d="M242.7,146.5h0c-1.5-1.4-4-1.9-6.7-1.1l-155.4,35.5c-2.9.8-5.4,2.8-6.9,5.1l41.5,52.6-4.8,146.6,56.5-53.5,67.5-18.9c4.6-1.3,8.4-5.6,8.4-9.7l.8-88.1,27-57-28-11.6Z"/>
              <path class="st20" d="M115.1,238.6l-41.5-52.5h0c0,0,0-.1,0-.1,1.6-2.5,4.2-4.4,7-5.2l155.4-35.5c2.7-.7,5.2-.3,6.8,1.1l28.1,11.7-27,57.1-.8,88.1c0,4.1-3.9,8.5-8.5,9.8l-67.5,18.9-56.7,53.7,4.8-146.9ZM242.7,146.6h0s0,0,0,0c-1.5-1.4-4-1.8-6.6-1.1l-155.4,35.5c-2.7.8-5.2,2.6-6.8,5l41.5,52.5h0s-4.8,146.4-4.8,146.4l56.3-53.3h0s67.6-18.9,67.6-18.9c4.6-1.3,8.3-5.6,8.3-9.5l.8-88.1,26.9-56.9-27.8-11.5Z"/>
            </g>
            <g>
              <path class="st3" d="M109.2,230.3c-1.3.9,6.9-26.5,6.8-26.6l-41-19c-.1-.1-.1-.3,0-.5.2-.1.4-.1.5,0l40.4,19.4c.1.1-6.4,26.6-6.5,26.5-2.6-1.1-.2,0-.3,0Z"/>
              <path class="st20" d="M109,230.4s0,0,0,0c0,0-.1,0-.2-.1-.6-.3-.7-.4-.6-.5,0-.1,0-.1.8.2,0-1.8,1.8-8.5,5.9-22.6.5-1.8.9-3.2,1-3.5l-40.9-18.9h0c0-.1-.1-.2-.1-.3,0-.1,0-.2.2-.3.2-.2.5-.2.7,0l40.4,19.4h0s0,0,0,0c0,0,0,0,0,.2,0,.6-.6,3-3.1,13-.5,2.2-3.2,13.1-3.5,13.4h0c0,0,0,0,0,0,0,0,0,0,0,0,0,0,0,0,0,0h0c0,0,0,0,0,0,0,0,0,0,0,0,0,0,0,0-.1,0ZM109.2,230.3h0s0,0,0,0ZM109.1,230c0,0,.1,0,.2,0,.4-1.3,3.8-14.9,5.5-22-1.8,6.1-5.7,19.7-5.7,21.9ZM75.1,184.4c0,0,0,0,0,.1,0,0,0,0,0,.1l25.3,11.7-24.8-11.9h0c0,0-.1,0-.2,0s-.1,0-.2,0Z"/>
            </g>
            <g>
              <path class="st3" d="M75.3,184.4c-.9,1.4-3.1,4.6-3.1,6.2l-5.6,64c0,1.5-1,3.7-2.3,4.8l-10.1,9.3c-1.2,1.1-2.3,3.3-2.3,4.8l-.6,65.9c0,1.6.6,2.9,1.6,3.9l51.5,47.8,6.1-5.7,6.6-181.5-41.7-19.3Z"/>
              <path class="st20" d="M52.8,343.3c-1.1-1-1.6-2.4-1.6-3.9l.6-65.9c0-1.5,1.1-3.7,2.3-4.9l10.1-9.3c1.2-1.1,2.2-3.2,2.2-4.7l5.6-64c0-1.5,1.9-4.4,2.9-6l.2-.3,41.8,19.4h0s-6.6,181.6-6.6,181.6h0c0,0-6.1,5.8-6.1,5.8h0c0,0-51.6-47.8-51.6-47.8ZM116.9,203.8l-41.6-19.3h0c-.9,1.6-2.9,4.6-2.9,6l-5.6,64c0,1.5-1.1,3.7-2.3,4.9l-10.1,9.3c-1.2,1.1-2.2,3.2-2.2,4.7l-.6,65.9c0,1.5.5,2.8,1.5,3.8l51.4,47.7,5.9-5.6,6.6-181.4Z"/>
            </g>
          </g>
          <polyline class="st19" points="51.5 317.6 79 343.2 79 345.8 51.5 320.2"/>
          <polyline class="st19" points="51.6 310.6 79.1 336.1 79.1 338.8 51.5 313.2"/>
          <polyline class="st19" points="51.6 303.5 79.2 329.1 79.1 331.7 51.6 306.2"/>
          <polyline class="st19" points="51.7 296.5 79.2 322.1 79.2 324.7 51.7 299.1"/>
          <polyline class="st19" points="51.7 289.5 79.3 315 79.3 317.7 51.7 292.1"/>
          <polyline class="st19" points="51.8 282.5 79.3 308 79.3 310.6 51.8 285.1"/>
          <path class="st19" d="M103.1,356.5s0,0-.1,0c-.1,0-.2,0-.3,0l-10.3-9.1c-.6-.5-1.1-1.6-1.1-2.3l.8-84.5c0-.6-.4-1.5-.9-1.9l-23.7-13.9c-.1-.1-.1-.3,0-.4.2-.1.4-.1.5,0l23.7,13.9c.6.5,1.1,1.6,1.1,2.3l-.8,84.5c0,.6.4,1.5.9,1.9l10.2,9"/>
        </g>
        <g>
          <g>
            <g>
              <path class="st3" d="M265.4,156.4c4.3-1,7.7,1.9,7.7,6.5v174.2c0,4.6-3.6,9.4-7.8,10.6l-154.6,44.7c-4.6,1.3-8.4-1.5-8.4-6.3v-181.6c0-4.8,3.9-9.6,8.5-10.7l154.6-37.3Z"/>
              <path class="st14" d="M108.5,393.1c-1.4,0-2.8-.4-3.9-1.3-1.7-1.3-2.6-3.3-2.6-5.7v-181.7c0-5,4-9.9,8.7-11.1l154.6-37.3c2.2-.5,4.2,0,5.8,1.2,1.6,1.3,2.4,3.3,2.4,5.7v174.2c0,4.8-3.7,9.7-8.1,10.9l-154.6,44.7c-.8.2-1.6.4-2.4.3ZM265.5,156.8l-154.6,37.4c-4.5,1.1-8.1,5.7-8.1,10.4v181.6c0,2.2.7,4,2.2,5.1,1.5,1.1,3.5,1.4,5.6.8l154.6-44.7c4.1-1.2,7.5-5.8,7.5-10.2v-174.2c0-2.1-.7-3.9-2.1-5-1.4-1.2-3.2-1.5-5.2-1.1Z"/>
            </g>
            <path class="st19" d="M102.5,355.5l169.8-47.5c.2,0,.4,0,.4.3,0,.2,0,.4-.2.4l-170,47.6s0,0-.1,0c-.1,0-.2,0-.3-.1"/>
            <g>
              <path class="st19" d="M263.7,160.4c3.6-.9,6.6,1.6,6.6,5.5v119.4c0,3.9-3,7.9-6.6,8.9l-151,41.6c-3.9,1.1-7.1-1.4-7.1-5.4v-124.3c0-4,3.3-8.1,7.2-9.1l151-36.6Z"/>
              <path class="st19" d="M263.7,160.4l-151,36.6c-3.9.9-7.1,5-7.1,9.1v124.3c0,2.2.9,3.9,2.3,4.8l12.2-24.1,124.7-135.5,23.6-14.1c-1.2-1.1-2.9-1.6-4.8-1.1Z"/>
              <path class="st19" d="M246.4,176.7c-.1,0-.2,0-.3-.2-.1-.2,0-.4.1-.5l23-13.8c.2,0,.4,0,.5.1.1.2,0,.4-.1.5l-23,13.8c0,0-.1,0-.2,0Z"/>
              <path class="st19" d="M109.6,336.3c0,0-.1,0-.2,0-.2,0-.3-.3-.2-.5l12.2-24.1c0-.2.3-.3.5-.2.2,0,.3.3.2.5l-12.2,24.1c0,.1-.2.2-.3.2Z"/>
              <g>
                <path class="st16" d="M125.3,205.9c-2.5.6-4.5,3.2-4.5,5.7v102.4c0,2,1.8,3.5,3.7,3.2,7.7-1.1,28.1-4.6,68.8-15.7,36.2-9.9,51.8-16,57.8-18.6s3.3-2.8,3.5-5c.7-6.6,2-22.4,2-46.3,0-25.3-1.4-45.5-2.1-53.6-.2-2-2.1-3.4-3.9-3l-125.4,30.8Z"/>
                <path class="st16" d="M124.1,317.7c-.8,0-1.7-.3-2.3-.9-.8-.7-1.3-1.7-1.3-2.8v-102.4c0-2.7,2.1-5.5,4.7-6.1h0l125.4-30.8c1-.2,2,0,2.9.6.8.6,1.4,1.6,1.5,2.7.6,7.6,2.1,28,2.1,53.6,0,23.5-1.3,39.1-2,46.3-.2,2.3-1.7,4.3-3.7,5.3-6.2,2.8-21.9,8.9-57.8,18.7-41.3,11.3-61.9,14.7-68.9,15.7-.2,0-.4,0-.6,0ZM125.3,205.9v.4c-2.2.6-4.1,3-4.1,5.4v102.3c0,.8.4,1.6,1,2.2.6.5,1.5.8,2.3.7,6.9-1,27.5-4.4,68.8-15.7,35.8-9.8,51.5-15.9,57.7-18.6,1.8-.8,3.1-2.6,3.3-4.7.8-7.2,2-22.8,2-46.2,0-25.6-1.5-45.9-2.1-53.5,0-.8-.5-1.6-1.2-2.1-.7-.5-1.5-.7-2.3-.5l-125.4,30.8v-.4Z"/>
              </g>
              <path class="st14" d="M110.7,336.4c-1.2,0-2.4-.4-3.3-1.1-1.4-1.1-2.2-2.9-2.2-4.9v-124.3c0-4.2,3.4-8.4,7.4-9.4l151-36.6v.4c.1,0,0-.4,0-.4,1.9-.4,3.6,0,4.9,1,1.3,1.1,2.1,2.8,2.1,4.8v119.4c0,4-3.1,8.2-6.9,9.2l-151,41.7c-.7.2-1.4.3-2,.3ZM265.5,160.6c-.5,0-1.1,0-1.7.2h0l-151,36.6c-3.8.9-6.8,4.8-6.8,8.7v124.3c0,1.8.6,3.4,1.9,4.3,1.2.9,2.9,1.2,4.7.7l151-41.6c3.5-1,6.3-4.8,6.3-8.5v-119.4c0-1.8-.6-3.3-1.7-4.2-.7-.6-1.6-1-2.6-1Z"/>
              <g>
                <g>
                  <path class="st3" d="M202,334.9c0-.9.7-1.8,1.5-2l54.1-15.2c.8-.2,1.4.3,1.4,1.1s-.6,1.7-1.4,1.9l-54.1,15.2c-.8.2-1.5-.3-1.5-1.1Z"/>
                  <path class="st14" d="M203.1,336.5c-.3,0-.6-.1-.9-.3-.4-.3-.6-.8-.6-1.3,0-1,.8-2.1,1.7-2.3l54.1-15.2c.5-.1,1,0,1.3.2.4.3.6.7.6,1.3,0,1-.7,2-1.7,2.3l-54.1,15.2c-.2,0-.3,0-.5,0ZM258,318c0,0-.2,0-.3,0l-54.1,15.2c-.7.2-1.2.9-1.2,1.6s.1.5.3.7c.2.1.4.2.7.1l54.1-15.2c.6-.2,1.2-.9,1.2-1.6s0-.5-.3-.7c-.1,0-.3-.1-.4-.1Z"/>
                </g>
                <g>
                  <path class="st14" d="M257.6,317.7l-54.1,15.2c-.7.2-1.3.9-1.4,1.6.1,0,.2,0,.3,0l54.1-15.2c.7-.2,1.2-.9,1.4-1.6-.1,0-.2,0-.3,0Z"/>
                  <path class="st14" d="M202.1,334.9c-.1,0-.2,0-.3-.1,0,0-.1-.2,0-.3.2-.9.9-1.6,1.7-1.9l54.1-15.2h0c.1,0,.3,0,.4,0,.1,0,.2,0,.3.1,0,0,0,.2,0,.3-.2.9-.9,1.6-1.6,1.8l-54.1,15.2c-.1,0-.3,0-.4,0,0,0,0,0,0,0ZM257.3,318.2l-53.7,15.1c-.4.1-.7.4-.9.7l53.7-15.1c.3,0,.7-.4.9-.7Z"/>
                </g>
              </g>
              <g>
                <g>
                  <path class="st17" d="M122.7,358.1l-1.3-1.5h0c-.3-.3-.7-.5-1.2-.3l-5.7,1.6c-.8.2-1.5,1.2-1.5,2s.1.6.3.9h0s1.3,1.5,1.3,1.5l8.2-4.2Z"/>
                  <path class="st14" d="M114.5,362.7c-.1,0-.2,0-.3-.1l-1.3-1.5s0,0,0,0c-.2-.3-.3-.6-.3-1.1,0-1.1.8-2.1,1.8-2.4l5.7-1.6c.6-.2,1.2,0,1.6.4,0,0,0,0,0,0l1.3,1.5c0,0,.1.2,0,.3,0,.1,0,.2-.2.3l-8.2,4.2c0,0-.1,0-.2,0ZM113.5,360.7l1,1.2,7.5-3.8-.9-1.1s0,0,0,0c-.2-.2-.5-.3-.8-.2l-5.7,1.6c-.7.2-1.3,1-1.3,1.7s0,.4.2.6c0,0,0,0,0,0Z"/>
                </g>
                <g>
                  <path class="st17" d="M114.2,361.5c0-.9.7-1.8,1.5-2l5.7-1.6c.8-.2,1.5.3,1.5,1.2s-.7,1.8-1.5,2l-5.7,1.6c-.8.2-1.5-.3-1.5-1.2Z"/>
                  <path class="st14" d="M115.3,363.1c-.3,0-.6-.1-.9-.3-.4-.3-.6-.8-.6-1.3,0-1.1.8-2.1,1.8-2.4l5.7-1.6c.5-.1,1,0,1.4.2.4.3.6.8.6,1.3,0,1.1-.8,2.1-1.8,2.4l-5.7,1.6c-.2,0-.4,0-.5,0ZM121.8,358.2c0,0-.2,0-.3,0l-5.7,1.6c-.7.2-1.3,1-1.3,1.7,0,.3.1.5.3.7.2.1.5.2.7,0l5.7-1.6c.7-.2,1.3-1,1.3-1.7,0-.3-.1-.5-.3-.7-.1,0-.3-.1-.4-.1Z"/>
                </g>
              </g>
            </g>
          </g>
          <g>
            <polygon class="st17" points="138.6 302.7 143.3 301.4 143.3 296.6 138.6 297.9 138.6 302.7"/>
            <polygon class="st17" points="138.6 305.4 143.3 304.2 143.3 302.7 138.6 303.9 138.6 305.4"/>
            <polygon class="st17" points="144.2 303.9 148.8 302.6 148.8 301.2 144.2 302.4 144.2 303.9"/>
            <polygon class="st17" points="149.8 287.6 154.4 286.4 154.4 281.6 149.8 282.8 149.8 287.6"/>
            <polygon class="st17" points="149.8 293.7 154.4 292.4 154.4 287.6 149.8 288.8 149.8 293.7"/>
            <polygon class="st17" points="149.8 299.7 154.4 298.4 154.4 293.6 149.8 294.9 149.8 299.7"/>
            <polygon class="st17" points="149.8 302.4 154.4 301.1 154.4 299.7 149.8 300.9 149.8 302.4"/>
            <polygon class="st17" points="155.3 280.1 159.9 278.9 159.9 274.1 155.3 275.3 155.3 280.1"/>
            <polygon class="st17" points="155.3 286.1 159.9 284.9 159.9 280.1 155.3 281.3 155.3 286.1"/>
            <polygon class="st17" points="155.3 292.2 159.9 290.9 159.9 286.1 155.3 287.4 155.3 292.2"/>
            <polygon class="st17" points="155.3 298.2 159.9 296.9 159.9 292.1 155.3 293.4 155.3 298.2"/>
            <polygon class="st17" points="155.3 300.9 159.9 299.6 159.9 298.2 155.3 299.4 155.3 300.9"/>
            <polygon class="st17" points="160.9 284.7 165.5 283.4 165.5 278.6 160.9 279.9 160.9 284.7"/>
            <polygon class="st17" points="160.9 290.7 165.5 289.5 165.5 284.6 160.9 285.9 160.9 290.7"/>
            <polygon class="st17" points="160.9 296.7 165.5 295.5 165.5 290.7 160.9 291.9 160.9 296.7"/>
            <polygon class="st17" points="160.9 299.4 165.5 298.2 165.5 296.7 160.9 297.9 160.9 299.4"/>
            <polygon class="st17" points="166.4 289.2 171 288 171 283.2 166.4 284.4 166.4 289.2"/>
            <polygon class="st17" points="166.4 295.2 171 294 171 289.2 166.4 290.4 166.4 295.2"/>
            <polygon class="st17" points="166.4 297.9 171 296.7 171 295.2 166.4 296.4 166.4 297.9"/>
            <polygon class="st17" points="171.9 275.7 176.5 274.5 176.5 269.7 171.9 270.9 171.9 275.7"/>
            <polygon class="st17" points="171.9 281.7 176.5 280.5 176.5 275.7 171.9 276.9 171.9 281.7"/>
            <polygon class="st17" points="171.9 287.7 176.5 286.5 176.5 281.7 171.9 282.9 171.9 287.7"/>
            <polygon class="st17" points="171.9 293.7 176.5 292.5 176.5 287.7 171.9 288.9 171.9 293.7"/>
            <polygon class="st17" points="171.9 296.4 176.5 295.2 176.5 293.7 171.9 294.9 171.9 296.4"/>
            <polygon class="st17" points="177.4 274.3 182 273.1 182 268.3 177.4 269.5 177.4 274.3"/>
            <polygon class="st17" points="177.4 280.3 182 279 182 274.3 177.4 275.5 177.4 280.3"/>
            <polygon class="st17" points="177.4 268.3 182 267.1 182 262.3 177.4 263.5 177.4 268.3"/>
            <polygon class="st17" points="177.4 262.3 182 261.1 182 256.3 177.4 257.5 177.4 262.3"/>
            <polygon class="st17" points="177.4 286.2 182 285 182 280.2 177.4 281.5 177.4 286.2"/>
            <polygon class="st17" points="177.4 292.2 182 291 182 286.2 177.4 287.4 177.4 292.2"/>
            <polygon class="st17" points="177.4 294.9 182 293.7 182 292.2 177.4 293.4 177.4 294.9"/>
            <polygon class="st17" points="182.9 272.8 187.5 271.6 187.5 266.8 182.9 268 182.9 272.8"/>
            <polygon class="st17" points="182.9 278.8 187.5 277.6 187.5 272.8 182.9 274 182.9 278.8"/>
            <polygon class="st17" points="182.9 266.8 187.5 265.6 187.5 260.9 182.9 262 182.9 266.8"/>
            <polygon class="st17" points="182.9 284.8 187.5 283.6 187.5 278.8 182.9 280 182.9 284.8"/>
            <polygon class="st17" points="182.9 290.8 187.5 289.5 187.5 284.8 182.9 286 182.9 290.8"/>
            <polygon class="st17" points="182.9 293.4 187.5 292.2 187.5 290.7 182.9 292 182.9 293.4"/>
            <polygon class="st17" points="188.4 283.3 192.9 282.1 192.9 277.3 188.4 278.5 188.4 283.3"/>
            <polygon class="st17" points="188.4 289.3 192.9 288.1 192.9 283.3 188.4 284.5 188.4 289.3"/>
            <polygon class="st17" points="188.4 292 192.9 290.7 192.9 289.3 188.4 290.5 188.4 292"/>
            <polygon class="st17" points="193.8 269.9 198.4 268.7 198.4 264 193.8 265.1 193.8 269.9"/>
            <polygon class="st17" points="193.8 275.9 198.4 274.7 198.4 269.9 193.8 271.1 193.8 275.9"/>
            <polygon class="st17" points="193.8 281.8 198.4 280.6 198.4 275.9 193.8 277.1 193.8 281.8"/>
            <polygon class="st17" points="193.8 287.8 198.4 286.6 198.4 281.8 193.8 283 193.8 287.8"/>
            <polygon class="st17" points="193.8 290.5 198.4 289.3 198.4 287.8 193.8 289 193.8 290.5"/>
            <polygon class="st17" points="199.3 268.5 203.8 267.3 203.8 262.5 199.3 263.7 199.3 268.5"/>
            <polygon class="st17" points="199.3 274.4 203.8 273.2 203.8 268.5 199.3 269.7 199.3 274.4"/>
            <polygon class="st17" points="199.3 262.5 203.8 261.3 203.8 256.6 199.3 257.8 199.3 262.5"/>
            <polygon class="st17" points="199.3 280.4 203.8 279.2 203.8 274.4 199.3 275.6 199.3 280.4"/>
            <polygon class="st17" points="199.3 286.3 203.8 285.1 203.8 280.4 199.3 281.6 199.3 286.3"/>
            <polygon class="st17" points="199.3 289 203.8 287.8 203.8 286.3 199.3 287.5 199.3 289"/>
            <polygon class="st17" points="204.7 278.9 209.2 277.7 209.2 273 204.7 274.2 204.7 278.9"/>
            <polygon class="st17" points="204.7 284.9 209.2 283.7 209.2 278.9 204.7 280.1 204.7 284.9"/>
            <polygon class="st17" points="204.7 287.5 209.2 286.3 209.2 284.9 204.7 286.1 204.7 287.5"/>
            <polygon class="st17" points="210.1 271.5 214.6 270.3 214.6 265.6 210.1 266.8 210.1 271.5"/>
            <g>
              <polygon class="st17" points="215.5 244.9 220 243.8 220 239 215.5 240.2 215.5 244.9"/>
              <polygon class="st17" points="215.5 239 220 237.9 220 233.1 215.5 234.3 215.5 239"/>
              <polygon class="st17" points="215.5 233.1 220 231.9 220 227.2 215.5 228.3 215.5 233.1"/>
            </g>
            <polygon class="st17" points="210.1 277.5 214.6 276.3 214.6 271.5 210.1 272.7 210.1 277.5"/>
            <polygon class="st17" points="210.1 283.4 214.6 282.2 214.6 277.5 210.1 278.7 210.1 283.4"/>
            <polygon class="st17" points="210.1 286.1 214.6 284.9 214.6 283.4 210.1 284.6 210.1 286.1"/>
            <polygon class="st17" points="215.5 284.6 220 283.4 220 282 215.5 283.2 215.5 284.6"/>
            <polygon class="st17" points="220.9 283.2 225.4 282 225.4 280.5 220.9 281.7 220.9 283.2"/>
            <polygon class="st17" points="226.3 281.7 230.7 280.5 230.7 279.1 226.3 280.3 226.3 281.7"/>
            <polygon class="st17" points="231.6 280.3 236.1 279.1 236.1 277.6 231.6 278.8 231.6 280.3"/>
          </g>
        </g>
      </g>
      <g>
        <path class="st16" d="M366.9,378.2c1.1-.7,1.7-1.9,2.3-3,1.7-3.7,3.5-7.3,5.6-10.8,10-16.6,27-27.9,44.8-35.8,5.7-2.6,12.2-4.9,18.2-2.9,6.7,2.3,10.6,9.4,12.5,16.2,1.8,6.9,2.3,14.2,5.3,20.6.3.5.6,1.1,1.1,1.4.9.5,2.1,0,2.7-.9.6-.9.7-2,.7-3,.5-12.2-3.7-24.4-11.4-33.8-7.7-9.4-18.8-16-30.7-18.5-7.1-1.5-14.6-1.6-21.4,1-6.1,2.4-11.2,6.8-15.8,11.4-8.3,8.4-18.7,17-24.4,27.3-2.5,4.5-2.4,10.9-4.8,15.4-1.7,3.1-1.9,5,0,8.3,2.3,4.2,10.5,9.9,15.5,7Z"/>
        <path class="st14" d="M363.7,379.5c-2.1,0-4.4-.8-6.9-2.3,0,0-.2-.1-.2-.3-.2-.6-.4-1.2-.4-1.8-.2-1.7.2-3.3.7-4.8,4.6-15.9,10-26.4,19.3-37.3,3.8-4.4,11.9-10.8,16.6-13.7,7-4.2,16.3-5.6,25.3-3.7,7.5,1.5,15,5.1,22.3,10.7.2.2.3.5.1.7-.1.2-.4.3-.7.2-.8-.5-1.6-.8-2.4-1.1-5.7-1.9-12,.2-17.8,2.9-21.3,9.5-35.9,21.2-44.5,35.6-2.1,3.5-3.9,7.2-5.6,10.8-.5,1.1-1.2,2.5-2.5,3.2-1,.6-2.1.9-3.4.9ZM357.5,376.5c1.8,1.1,5.9,3.2,9,1.3,1-.6,1.6-1.8,2.1-2.8,1.7-3.6,3.5-7.4,5.6-10.9,8.8-14.6,23.5-26.4,45-36,5.6-2.5,11.6-4.6,17.3-3.3-6.1-4.1-12.4-6.9-18.6-8.2-8.8-1.8-17.8-.5-24.6,3.6-4.7,2.8-12.7,9.1-16.4,13.5-9.3,10.8-14.6,21.1-19.1,36.9-.4,1.4-.8,2.9-.6,4.4,0,.5.2.9.3,1.4Z"/>
        <g>
          <path class="st10" d="M322.2,427.6c-1.8,6.5-1.4,13.4-.6,20.2.7,5.7,1.6,11.4,2.8,17,.6,3,1.4,6.1,2.4,9,3.1,8.3,9.2,15.4,16.9,19.9,7.7,4.4,16.8,6.2,25.6,5.1,1.2-.2,2.5-.4,3.6-1.1,1-.7,1.7-2.1,1.3-3.3-.6-1.6-2.7-2-4.4-2.3-7.9-1.4-14.6-6.9-20.1-12.8-4.1-4.5-7.9-9.4-10.4-14.9-1.5-3.2-2.6-6.6-3.6-9.9-2.2-7.3-1.8-37.2,1.7-44.6-6.7,3.9-13.1,10.4-15.2,18Z"/>
          <path class="st22" d="M364,499.4c-7.2,0-14.4-1.9-20.6-5.5-7.9-4.6-13.9-11.7-17.1-20.1-1.1-3-1.9-6.1-2.5-9-1.2-5.6-2.1-11.3-2.8-17-.8-6.6-1.3-13.7.6-20.4,1.9-7,7.7-13.8,15.5-18.3.2-.1.4,0,.6,0,.2.1.2.4.1.6-3.6,7.5-3.8,37.2-1.7,44.3.9,3.1,2,6.6,3.6,9.9,2.3,4.9,5.6,9.7,10.3,14.8,6.8,7.3,13.2,11.5,19.8,12.7,1.8.3,4.1.7,4.8,2.7.5,1.5-.4,3-1.5,3.8-1.2.8-2.6,1.1-3.8,1.2-1.8.2-3.6.3-5.4.3ZM336.4,410.8c-6.9,4.4-12,10.6-13.8,17-1.8,6.5-1.4,13.5-.6,20,.7,5.7,1.6,11.3,2.8,16.9.6,2.9,1.3,5.9,2.4,8.9,3,8.1,9.1,15.2,16.7,19.6,7.5,4.4,16.5,6.1,25.3,5,1.1-.1,2.4-.4,3.3-1,.8-.6,1.5-1.7,1.1-2.7-.5-1.4-2.4-1.7-4-2-6.8-1.2-13.4-5.5-20.3-13-4.8-5.2-8.2-10.1-10.5-15.1-1.5-3.3-2.7-6.9-3.6-10-2-6.8-1.9-34.2,1.2-43.6ZM322.2,427.6h0,0Z"/>
        </g>
        <path class="st18" d="M372.9,497.5c1-.7,1.7-2.1,1.3-3.3-.6-1.6-2.7-2-4.4-2.3-7.1-1.3-13.1-5.7-18.2-10.9-3.8,1.7-9,.8-12.4-1.9-4.5-3.5-6.8-9-8.6-14.4-4.8-14.3-7.2-29.9-4.7-44.6-1.6,2.3-2.9,4.9-3.7,7.6-1.8,6.5-1.4,13.4-.6,20.2.7,5.7,1.6,11.4,2.8,17,.6,3,1.4,6.1,2.4,9,3.1,8.3,9.2,15.4,16.9,19.9,7.7,4.4,16.8,6.2,25.6,5.1,1.2-.2,2.5-.4,3.6-1.1Z"/>
        <path class="st9" d="M350.1,488.7c-2.3,0-5-.2-6.7,1.5-.3.3-.5.6-.5.9,0,.5.3,1,.6,1.4,2.4,2.9,6.4,4.1,9.9,5.5,2.3.9,4.4,2.1,6.8,2.8,2.9.9,6,1.2,9.1.7,2.1-.3,4.2-1,5.8-2.3,1.6-1.3,2.7-3.4,2.5-5.5-.4-3.1-3.4-5.2-6.2-6.6-2.1-1.1-4.4-2.1-6.6-2.8-1.7-.6-4.1-1.6-5.8-.7-1.2.6-1.7,2.1-2.6,3-1.6,1.5-3.9,2-6.1,2.1Z"/>
        <path class="st16" d="M348.2,400.7c-4.6,1-8.7,3.9-11.3,7.8-3.2,4.9-3.8,11-3.9,16.9-.2,9.7.5,19.4,2.2,28.9.8,4.8,1.9,9.5,4,13.9,4.5,9.6,13.2,16.5,22.5,21.5,2.8,1.5,6,2.9,9.2,2.3,2.6-.5,4.7-2.4,6.6-4.3,9.3-9.5,15.3-22.1,16.8-35.3,1.1-9,0-18.4-4.4-26.3-2.4-4.3-9.6-16.8-17.1-20.5-8.3-4.1-19.4-4.6-28.1-1.6l3.5-3.1Z"/>
        <g>
          <path class="st10" d="M373.2,318.7c9.1-9.2,20.3-17,33.1-18.8,3.2-.5,6.5-.5,9.7-.4,18.9.7,37.6,8.7,50.1,22.9,12.5,14.1,18.2,34.4,13.4,52.7-.4,1.5-.9,3.1-2,4.2-1.5,1.4-3.8,1.7-5.9,1.8-3.5.3-7.1.5-10.3-.8-3.2-1.3-5.8-4.8-5-8.2,4.3-16.7.3-35.5-11.1-48.4-11.4-12.9-35.6-18.3-49.2-11.2-43,22.5-47,66.2-48.1,64-4.2-8.1,2.4-22.7,5.8-30,4.7-10.3,11.5-19.7,19.5-27.7Z"/>
          <path class="st22" d="M467.4,381.8c-2.1,0-4.3-.2-6.3-1.1-3.3-1.4-6.2-5.1-5.3-8.8,4.3-16.9.1-35.3-11-48-11.1-12.6-35.1-18.1-48.6-11.1-35,18.3-43.8,50.2-46.7,60.7-.8,2.8-.9,3.3-1.5,3.4,0,0-.4,0-.6-.4-4.4-8.4,2.7-23.8,5.8-30.4,4.6-10,11.2-19.4,19.6-27.8h0c10.9-11,22.1-17.3,33.4-18.9,2.9-.4,6.1-.6,9.8-.4,19.8.8,38.2,9.2,50.5,23,13,14.7,18.2,35.1,13.5,53.2-.4,1.5-.9,3.2-2.2,4.4-1.6,1.5-3.8,1.8-6.2,2-1.4.1-2.8.2-4.3.2ZM410.5,308.8c12.7,0,27.1,5.5,35.1,14.5,11.3,12.9,15.6,31.6,11.2,48.9-.8,3.2,1.7,6.4,4.7,7.6,3.2,1.3,6.9,1,10.1.8,2.2-.2,4.2-.4,5.6-1.7,1.1-1,1.5-2.6,1.9-3.9,4.6-17.7-.5-37.7-13.3-52.2-12.1-13.7-30.2-21.9-49.8-22.7-3.6-.1-6.7,0-9.6.4-11.1,1.6-22.1,7.9-32.9,18.7h0c-8.3,8.3-14.8,17.6-19.4,27.6-2.9,6.2-9.5,20.6-6.2,28.7.2-.5.4-1.3.6-2,2.9-10.6,11.9-42.8,47.2-61.3,4.1-2.2,9.3-3.2,14.7-3.2ZM348.3,376.2h0,0Z"/>
        </g>
        <path class="st18" d="M462.8,350.3c-1.6-15.8-8.3-31.9-21.2-41.3-4.1-3-8.8-5.2-13.6-7-2.3-.8-4.7-1.6-7.1-2.2-1.6-.2-3.3-.3-4.9-.4-3.2-.1-6.5,0-9.7.4-12.8,1.8-24,9.6-33.1,18.8-8,8-14.7,17.4-19.5,27.7-3.4,7.3-10,21.9-5.8,30,1.2,2.3,5.2-41.4,48.1-64,13.6-7.1,37.8-1.7,49.2,11.2,11.4,12.9,15.4,31.7,11.1,48.4,0,.1,0,.3,0,.4,1.4-1.2,2.6-2.5,3.6-4.1,3.4-5.2,3.6-11.9,2.9-18.1Z"/>
        <g>
          <path class="st3" d="M342.8,369.8c-3.5,14.2-5.6,28.6-7.2,43.1-.5,4.2-.6,9.1,2.6,11.9,1.9,1.6,4.7,2,7.2,1.8,2.5-.2,5-1,7.5-1.3,2.1-.3,4.3-.4,6-1.6,2-1.5,2.6-4.2,2.9-6.7,2-13.4,2.3-27.5,8.2-39.8.2-.5.5-1.1.3-1.6-.1-.3-.5-.6-.8-.8-5-3.2-10.3-5.9-15.8-8.1-1.8-.7-6-3-7.8-2.5-1.9.5-2.7,3.9-3.1,5.5Z"/>
          <path d="M344.2,427.1c-2,0-4.4-.4-6.2-2-3.3-2.8-3.3-7.7-2.8-12.2,1.8-16.8,4.1-30.5,7.2-43.2h.4c0,0-.4,0-.4,0h.4c0,0-.3,0-.3,0,.4-1.8,1.3-5.1,3.3-5.7,1.6-.4,4.4.9,6.5,1.8.6.3,1.1.5,1.5.7,5.6,2.2,10.9,4.9,15.9,8.1.3.2.7.5.9.9.3.7,0,1.4-.3,1.9-4.5,9.3-5.7,19.9-6.9,30.1-.4,3.1-.8,6.4-1.2,9.5-.4,2.5-1,5.3-3.1,6.9-1.5,1.1-3.3,1.3-5.2,1.6-.3,0-.7,0-1,.1-1,.2-2.1.4-3.1.6-1.4.3-2.9.6-4.4.7-.4,0-.8,0-1.3,0ZM346.5,364.6c-.2,0-.4,0-.5,0-1.7.5-2.4,3.6-2.8,5.1h0c-3.1,12.7-5.4,26.4-7.2,43.2-.5,4.3-.5,9,2.5,11.6,2.1,1.7,4.9,1.9,6.9,1.7,1.4-.1,2.9-.4,4.3-.7,1-.2,2.1-.4,3.2-.6.3,0,.7,0,1-.1,1.7-.2,3.5-.4,4.8-1.4,1.9-1.4,2.4-4.1,2.8-6.5.5-3.1.9-6.4,1.2-9.5,1.2-10.3,2.5-20.9,7-30.4.2-.5.4-.9.3-1.3-.1-.2-.4-.4-.6-.6-5-3.2-10.3-5.9-15.8-8-.4-.2-1-.4-1.6-.7-1.7-.8-4.1-1.9-5.5-1.9Z"/>
        </g>
        <path class="st12" d="M347.7,404.1c-1.6-2.5-2-5.7-2.1-8.7-.2-4.8.4-9.6,1.5-14.3,1-4.2,2.6-8.2,4.6-12,.4-.7.9-1.6,1.3-2.6-2-.9-5.5-2.7-7.1-2.2-1.9.5-2.7,3.9-3.1,5.5-3.5,14.2-5.6,28.6-7.2,43.1-.4,3.8-.5,8.1,1.8,11,1.9-.2,3.8-1,5.5-2,2.6-1.5,5.1-3.5,6.5-6.1s1.8-6,.4-8.7c-.6-1.1-1.4-2-2.1-3Z"/>
        <path class="st16" d="M334.6,419.6c.2-3.4.6-7,2.3-10,2.8-4.8,8.6-7,14.1-7.7,3.8-.4,10.9-.5,14.5.9,3.5,1.4,3.3,4.5,4.4,8.1,1,3.2.3,6.6-.3,9.9-2,10.5-4,21.2-9.5,30.3-4.4,7.4-16.2,13.8-21.8,3.9-5.4-9.6-4.3-24.9-3.7-35.5Z"/>
        <path class="st10" d="M370.6,477.5c-3.7,0-7.2-1.7-9.6-4-3.1-2.9-5.4-6.9-7.1-12.8-2.8-9.3-3.4-19.2-3.8-28.4-.1-3.8-.1-7.2,1.2-10.4,2.1-5.3,7.9-9,14.1-9h0c5.6,0,11.3,2.9,15.2,7.7h0c11.3,13.8,7.1,32.8,3.6,42.9-1.9,5.5-4.2,11-9.2,13.2-1.4.6-2.9.9-4.3.9ZM365.4,413.9h0c-5.8,0-11.2,3.5-13.2,8.4-1.2,3-1.2,6.3-1.1,10,.3,9.2,1,19,3.7,28.2,1.7,5.7,3.9,9.7,6.8,12.4,3.1,2.9,8.3,4.9,12.9,2.9,4.7-2.1,6.8-7.4,8.7-12.6,3.4-9.9,7.6-28.5-3.4-41.9h0c-3.7-4.6-9.1-7.3-14.4-7.3Z"/>
        <path class="st16" d="M363.8,472.8c.3-9.4,3.7-18.6,8.6-26.6,4.9-8,11.3-15,18-21.7,6.5-6.5,13.4-12.9,21.9-16.4,8.7-3.6,18.8-4,27.8-.9,4.9,1.7,9.6,4.6,11.8,9.2,1.5,3.1,1.6,6.6,1.4,10-1,15.8-9.8,29.9-19.4,42.4-6.6,8.6-13.6,16.7-21.2,24.5-2.2,2.3-4.6,4.6-7.5,5.9-2.8,1.3-5.9,1.6-8.9,1.6-5.1,0-10.1-.7-15-1.8-3.3-.7-7.7-.7-10.1-3-5.7-5.4-7.6-15.8-7.4-23.2Z"/>
        <g>
          <path class="st10" d="M403.3,429.6c-2.3,2.2-4.4,4.5-6.5,7-5.9,6.8-11.5,13.9-16.7,21.3-6.5,9.1-12.8,19.6-11.4,30.6,1.2,9,8.3,16.2,16.8,19.1,20.9,7,40.2-2.9,50.4-11.9,3.3-2.9,25.5-31.5,28.1-36.9,2.6-5.4,4.1-11.6,3-17.5-.8-4.2-2.7-8-4.9-11.7-1.2-2-2.5-4-4.5-5.4-4.2-2.9-9.8-3.8-14.3-6.2-4.1-2.3-8.3-1.9-12.9-1.3-10.1,1.5-19.6,6-27.1,12.9Z"/>
          <path class="st22" d="M399.8,510.3c-4.7,0-9.6-.7-14.5-2.3-9.3-3.1-16-10.8-17.2-19.5-1.5-11.2,5-22,11.5-31,5.3-7.3,10.9-14.5,16.8-21.3,2.3-2.7,4.3-4.9,6.5-7,0,0,0,0,0,0,7.4-6.9,17.2-11.5,27.3-13,4.5-.7,8.9-1.1,13.2,1.3,1.9,1.1,4.2,1.9,6.3,2.6,2.8,1,5.7,2,8.1,3.7,2,1.4,3.4,3.6,4.6,5.5,2,3.3,4.2,7.4,5,11.9,1.2,6.9-1,13.5-3.1,17.8-2.6,5.4-24.7,34-28.2,37.1-8.7,7.6-21.9,14.3-36.4,14.3ZM403.6,429.9c-2.2,2-4.2,4.2-6.5,6.9-5.8,6.8-11.5,13.9-16.7,21.2-6.4,8.9-12.7,19.4-11.3,30.3,1.1,8.4,7.6,15.7,16.5,18.7,19.5,6.5,38.5-1.8,49.9-11.8,3.3-2.9,25.5-31.7,28-36.8,2-4.2,4.2-10.5,3-17.2-.8-4.3-2.9-8.3-4.8-11.5-1.1-1.9-2.4-3.9-4.3-5.2-2.3-1.6-5.1-2.6-7.8-3.5-2.2-.8-4.5-1.6-6.5-2.7-4.1-2.2-8.3-1.8-12.6-1.2-10,1.5-19.5,6-26.8,12.8Z"/>
        </g>
        <g>
          <path class="st3" d="M455.9,358.5c-1.7.5-3.5,1.6-4,3.3-.4,1.3,0,2.7.3,4,1,5.1,0,10.4-1.2,15.5-7.3,31.2-23.3,59.7-40.6,86.6-1.9,2.9-3.8,5.9-4.9,9.2-1.1,3.3-1.4,7.1,0,10.3,1.6,3.5,5,5.9,8.3,7.9,1.2.7,2.4,1.4,3.8,1.8,4.6,1.2,9.1-2.1,12.5-5.3,21.6-20.6,32.9-49.4,43.1-77.4,5-13.8,9.9-27.9,9.8-42.6,0-1,0-2-.6-2.8-.4-.6-1.1-1-1.8-1.4-4.4-2.5-8.8-5-13.3-7.5-4.6-2.6-6.3-3.2-11.4-1.6Z"/>
          <path d="M419.6,497.8c-.7,0-1.4,0-2.1-.3-1.4-.4-2.6-1.1-3.9-1.8-3.2-1.9-6.8-4.3-8.5-8.1-1.3-3-1.4-6.7,0-10.5,1.1-3.3,3-6.3,4.9-9.2v-.2c15.9-24.6,33.1-54.2,40.7-86.5,1.1-4.7,2.2-10.1,1.2-15.4v-.5c-.4-1.2-.6-2.4-.3-3.6.5-1.6,2-2.9,4.3-3.6h0c5.2-1.6,7-1,11.7,1.7l13.3,7.5c.6.4,1.4.8,1.9,1.5.6.9.7,2,.7,3,.1,15.3-5.4,30.5-9.8,42.7-10.6,29.3-21.9,57.3-43.2,77.6-4,3.8-7.6,5.7-10.8,5.7ZM460.5,358c-1.2,0-2.6.3-4.5.8h0c-.9.3-3.2,1.1-3.8,3.1-.3,1,0,2.2.2,3.3v.5c1.2,5.4,0,10.9-1,15.7-7.6,32.5-24.8,62.1-40.7,86.8v.2c-1.9,2.8-3.8,5.8-4.9,9-1.2,3.6-1.2,7.2,0,10,1.6,3.5,5.1,5.8,8.2,7.7,1.3.8,2.4,1.4,3.7,1.8,3.5.9,7.5-.8,12.2-5.2,21.1-20.1,32.4-48.1,43-77.3,4.4-12.2,9.9-27.3,9.8-42.4,0-.9,0-1.9-.5-2.6-.4-.6-1.1-1-1.7-1.3l-13.3-7.5c-2.9-1.6-4.6-2.4-6.7-2.4Z"/>
        </g>
        <path class="st12" d="M427.8,493.9c-.9-.2-1.9-.5-2.8-.6-4.9-1-10.5-2.2-12.9-6.6-1.6-2.9-1.3-6.5,0-9.5,1.2-3,3.3-5.7,5.3-8.3,19.3-25.5,33.2-55.2,40.5-86.4,1.8-7.8,3-15.7,3.4-23.7,0-.4,0-.8,0-1.2-1.4,0-3,.2-5.2.8-1.7.5-3.5,1.6-4,3.3-.4,1.3,0,2.7.3,4,1,5.1,0,10.4-1.2,15.5-7.3,31.2-23.3,59.7-40.6,86.6-1.9,2.9-3.8,5.9-4.9,9.2-1.1,3.3-1.4,7.1,0,10.3,1.6,3.5,5,5.9,8.3,7.9,1.2.7,2.4,1.4,3.8,1.8,3.6.9,7.1-.9,10.1-3.2Z"/>
        <path class="st18" d="M430.7,499.6c-1.6.6-3.2,1.2-4.8,1.7-11.9,3.7-26.5,3.2-35-5.9-6.6-7.1-7.9-17.9-5.4-27.2,2.5-9.3,8.3-17.4,14.6-24.7,10.6-12.4,23.9-23.7,39.8-26.9-3.1-.8-6.2-.5-9.6,0-10.1,1.5-19.6,6-27.1,12.9-2.3,2.2-4.4,4.5-6.5,7-5.9,6.8-11.5,13.9-16.7,21.3-6.5,9.1-12.8,19.6-11.4,30.6,1.2,9,8.3,16.2,16.8,19.1,17.8,5.9,34.4-.4,45.2-7.9Z"/>
        <path class="st6" d="M390.3,468.3c-.3.9-.4,2.2.6,2.3,7-11.8,14.9-23.7,26.3-31.4,4.8-3.2,10.3-5.8,13.7-10.6.9-1.3,1.8-3.8-.3-4.4-1.4-.4-4.5,2.1-5.7,2.8-3.8,2.3-7.4,4.8-10.8,7.7-6.8,5.8-12.7,12.6-17.2,20.3-2.5,4.2-4.7,8.7-6.4,13.3Z"/>
        <path class="st6" d="M466.4,362.8c-.8-.4-1.7-.8-2.5-.5-1.1.4-1.3,1.9-1.3,3.1-.3,17.2-6.4,33.6-12.4,49.7,9.5-12.2,12.3-28.2,15.6-43.3.2-.8.4-1.8,1.1-2.3.7-.5,1.7-.4,2.6-.2,4,.6,7.9,1.5,11.9,1.9-1.5-2.1-3.9-2.8-6.1-3.7-3.1-1.3-6-3.1-9-4.7Z"/>
        <path class="st5" d="M351.1,376.1c-1.3,6-2.7,12.3-1.3,18.3.4-4.2.9-8.4,1.7-12.5.3-1.5.6-3.1,1.4-4.4.8-1.4,2.1-2.5,3.6-2.7,1.3-.1,2.5.4,3.7.9,1.6.7,5.7,3.5,6.1.7.2-2.1-3.4-3.9-4.9-4.4-1.5-.5-4.2-1.5-5.7-1.6-3.2-.1-3.9,3-4.5,5.8Z"/>
        <path class="st6" d="M467.9,340.7c1.2,5.4,1.6,11.1,3.7,16.2.5,1.2,1.1,2.4,2.2,3.2,1.1.7,2.7.9,3.6,0,.6-.6.8-1.6.9-2.5.5-6.2-2.5-12.2-5.3-17.7-2.4-4.7-4.8-9.4-7.8-13.8-5.1-8.4-13.5-15.5-22.1-20.2,12.1,8,21.7,20.7,24.9,34.9Z"/>
        <path class="st2" d="M403.7,415.8c-9.5,6.5-16.8,15.6-23.7,24.9-2.1,2.9-4.2,5.9-4.7,9.4,2.6,0,4.6-2.1,6.2-4.1,8.5-10.3,16-21.9,27.1-29.3,9.4-6.3,20.1-8.4,31.2-7.9-4.8-2.7-12.9-1.8-18-.8-6.5,1.3-12.7,4.1-18.2,7.9Z"/>
        <path class="st2" d="M349.4,408.4c-4.5,3.4-5.8,9.6-6.2,15.3-1.1,13.7.5,27.6,4.7,40.6-1.6-9.5-2.5-19-2.7-28.6-.2-7.7.5-16.2,6-21.5,1.6-1.6,3.6-2.7,5.6-3.6,2.5-1.1,5.2-1.8,7.9-1.9,6.1-.2,12.2,2.8,15.8,7.7-.7-.9-.7-3-1.3-4.1-.7-1.4-1.7-2.7-2.9-3.8-2.2-2-4.5-3.1-7.4-3.3-6.1-.4-14.3-.8-19.4,3.1Z"/>
        <path class="st13" d="M477.6,390.3c-1.8,2.9-6,3.6-9.4,1.6-3.4-2.1-4.8-6.1-3-9s6-3.6,9.4-1.6c3.4,2.1,4.8,6.1,3,9Z"/>
        <path class="st13" d="M465.8,385.3c1.8-2.9,6-3.6,9.4-1.6,1.5.9,2.6,2.2,3.2,3.6,0-2.3-1.4-4.6-3.8-6-3.4-2.1-7.6-1.4-9.4,1.6-1,1.6-1,3.6-.2,5.4,0-1.1.2-2.1.8-3Z"/>
        <path class="st12" d="M436.1,472.7c.7,2.4-.4,4.9-1.6,7-2.9,5.3-6.7,10.1-11.3,14.1-1.4,1.2-2.8,2.4-4.6,2.7-1.8.3-3.9-.5-4.5-2.2-.4-1.3.1-2.8.8-4,2.9-5.6,7.5-10,11.2-15,1.1-1.5,2.4-5.3,4.1-6.1,2.2-1,5.3,1.6,5.9,3.5Z"/>
        <path class="st16" d="M395.8,492.9c-19.8,5-40.6,4.1-61,2.8-4.1-.3-8.9-.9-11-4.5-.8-1.3-1.1-2.9-2.2-4-.8-.7-1.8-1.1-2.9-1.4-4.2-1.3-8.5-2.6-12.7-3.9-1.2-.4-2.4-.7-3.5-.2-.8.4-1.4,1.2-1.9,1.9-2.7,4.1-5.3,9-3.9,13.7.9,3.3,3.7,5.9,6.9,7.3s6.6,2,10,2.4c12,1.6,24.2,2.8,36.3,2.5,6.3-.1,12.7-.7,19-1.3,10.2-1,20.5-2.1,30.4-5,9.9-2.9,19.4-7.6,26.6-14.9,3.5-3.5,6.4-7.7,7.9-12.4.4-1.3.7-2.7.3-4-.7-2.3-3.4-3.6-5.7-3.1-3.2.7-4.5,3.7-5.8,6.1-1.7,3.2-3.8,6-6.6,8.4-5.7,4.9-13,7.7-20.2,9.5Z"/>
        <g>
          <path class="st3" d="M431.4,469.1c.9,2.2,1,4.7.3,6.9-1.3,4.4-4.8,7.7-8.5,10.4-10.7,8-23.7,12.6-36.9,14.8-13.2,2.2-26.6,2.1-40,1.4-12.9-.7-26-2-38.3-6.1-2-.7-4-1.4-5.6-2.8-3.4-3.1-2.7-7.5-1-11.2,0-.1,0-.2.1-.3-.4.4-.7.9-1.1,1.4-2.7,4.1-5.3,9-3.9,13.7.9,3.3,3.7,5.9,6.9,7.3,3.1,1.5,6.6,2,10,2.4,12,1.6,24.2,2.8,36.3,2.5,6.3-.1,12.7-.7,19-1.3,10.2-1,20.5-2.1,30.4-5,9.9-2.9,19.4-7.6,26.6-14.9,3.5-3.5,6.4-7.7,7.9-12.4.4-1.3.7-2.7.3-4-.4-1.3-1.4-2.3-2.7-2.8Z"/>
          <path d="M346,509.9c-9.5,0-19.7-.8-32.5-2.5-3.7-.5-7-1-10.1-2.5-3.6-1.7-6.2-4.4-7.1-7.5-1.4-4.9,1.4-10.1,4-14,.3-.5.7-1,1.1-1.4l1.4-1.3-.9,2c-1.5,3.2-2.5,7.6.9,10.8,1.5,1.4,3.5,2.1,5.4,2.8,12.7,4.2,26.4,5.4,38.2,6,11.1.6,25.7,1,39.9-1.4,14.5-2.4,26.8-7.4,36.7-14.7,3.2-2.4,7-5.7,8.4-10.2.6-2.1.5-4.6-.3-6.7l-.3-.8.8.3c1.4.6,2.5,1.7,2.9,3,.4,1.5,0,3-.3,4.2-1.3,4.3-4,8.6-8,12.6-6.6,6.7-15.7,11.8-26.8,15-9.9,2.9-20.1,4-30.5,5-5.7.5-12.4,1.1-19,1.3-1.3,0-2.5,0-3.8,0ZM300.3,484.7c-2.3,3.6-4.4,8.1-3.2,12.3.8,2.9,3.3,5.5,6.7,7.1,3,1.4,6.2,1.9,9.9,2.4,14.5,2,25.7,2.7,36.2,2.5,6.6-.2,13.3-.7,19-1.3,10.4-1,20.5-2.1,30.3-5,11-3.2,19.9-8.2,26.5-14.8,3.9-3.9,6.5-8,7.8-12.3.3-1.1.7-2.5.3-3.8-.2-.9-.8-1.6-1.6-2.1.6,2,.6,4.3,0,6.3-1.5,4.8-5.6,8.4-8.6,10.6-10,7.4-22.4,12.4-37,14.8-14.2,2.4-28.9,2-40.1,1.4-11.8-.6-25.6-1.9-38.4-6.1-1.9-.6-4.1-1.4-5.7-2.9-2.4-2.2-3.1-5.4-2-9.2Z"/>
        </g>
        <path class="st7" d="M320.2,487.2c.5.2,1,.4,1.1.9,0,.4-.1.8-.4,1.2-1.5,2.4-3.1,4.9-4.6,7.3.9-1.6,1.7-3.4,2.3-5.2.1-.3.2-.7.2-1,0-.4-.2-.8-.5-1.2-1.5-2.2-4.3-3.1-6.8-3.9-2.4-.8-5.1-1.5-7.4-2.6,2.5,0,5.5,1.2,7.9,1.8,2.7.8,5.4,1.7,8.1,2.7Z"/>
        <path class="st7" d="M415.5,486c-1.6,1.2-3.3,2.2-5.1,3.1-8.4,4.5-17.5,8.3-27,8.7,1.9.4,3.9.1,5.8-.1,7.8-1.1,15.6-3.2,22.7-6.7,6.1-3,11.6-7.2,16-12.4,1.3-1.5,5-5.7,1.5-6.9-3.1-1-5,3.2-6.2,5.2-2.1,3.4-4.4,6.7-7.6,9.2Z"/>
        <path class="st6" d="M415.8,474c9-13.8,20.1-26.3,26.2-41.6-5.4,11.9-10.8,23.8-18.4,34.4-2.7,3.7-5.7,7.4-6.9,11.8-.3,1.1-2.1,8-3.8,4.3-1.3-2.6,1.5-6.9,2.9-8.9Z"/>
      </g>
      <g>
        <g>
          <path class="st3" d="M95.3,455.6c5.8,2.7,5.5,7.2-.5,10s-15.6,2.9-21.4.2c-5.8-2.7-5.5-7.2.5-10,6-2.8,15.6-2.9,21.4-.2M112.5,447.6c-14.9-6.9-39.5-6.7-55.1.6-15.6,7.3-16.1,18.8-1.3,25.7,14.9,6.9,39.5,6.7,55.1-.6,15.6-7.3,16.1-18.8,1.3-25.7h0Z"/>
          <path d="M82.6,479.3c-9.7,0-19.3-1.7-26.6-5.1-7.1-3.3-11-7.8-11-12.7,0-5.2,4.4-10,12.3-13.7,15.6-7.3,40.5-7.5,55.4-.6,7.1,3.3,11,7.8,11,12.7,0,5.2-4.4,10-12.3,13.7-8,3.7-18.5,5.6-28.8,5.6ZM86.1,442.9c-10.2,0-20.5,1.9-28.5,5.6-7.6,3.6-11.8,8.2-11.8,13,0,4.5,3.8,8.8,10.6,12,14.8,6.9,39.3,6.6,54.8-.6,7.6-3.6,11.8-8.2,11.8-13,0-4.5-3.8-8.8-10.6-12-7.2-3.3-16.6-5-26.3-5ZM83.7,468.2c-3.8,0-7.6-.7-10.4-2-2.8-1.3-4.4-3.1-4.4-5.1,0-2.1,1.7-4.1,4.9-5.5,6.1-2.9,15.9-2.9,21.7-.2,2.8,1.3,4.4,3.1,4.4,5.1,0,2.1-1.7,4.1-4.9,5.5-3.1,1.5-7.2,2.2-11.3,2.2ZM85,454.1c-3.9,0-7.9.7-11,2.1-2.8,1.3-4.5,3.1-4.5,4.9,0,1.7,1.4,3.2,4,4.4,5.7,2.7,15.1,2.6,21.1-.2,2.8-1.3,4.5-3.1,4.5-4.9,0-1.7-1.4-3.2-4-4.4-2.8-1.3-6.4-1.9-10.1-1.9Z"/>
        </g>
        <g>
          <path class="st30" d="M112.5,447.6c-1.6-.7-3.2-1.4-5-1.9l-14.2,9.2c.7.2,1.3.5,2,.8s1.1.6,1.6.9l19.8-6.6c-1.2-.8-2.6-1.6-4.2-2.3Z"/>
          <path class="st30" d="M61.2,475.8l14.2-9.2c-.7-.2-1.3-.5-2-.8s-1.1-.6-1.6-.9l-19.8,6.6c1.2.8,2.6,1.6,4.2,2.3s3.2,1.4,5,1.9Z"/>
          <path class="st30" d="M119.3,451.9l-21.3,5.4c.2.2.4.4.6.7l22.4-4.3c-.5-.6-1-1.2-1.6-1.7Z"/>
          <path class="st30" d="M49.5,469.5l21.3-5.4c-.2-.2-.4-.4-.6-.7l-22.4,4.3c.5.6,1,1.2,1.6,1.7Z"/>
        </g>
        <g>
          <path class="st10" d="M88.5,458.8c2.2,1,2.1,2.7-.2,3.7-2.3,1.1-5.9,1.1-8,0-2.2-1-2.1-2.7.2-3.7,2.3-1.1,5.9-1.1,8,0M93.4,456.5c-4.8-2.2-12.7-2.1-17.6.2-5,2.3-5.2,6-.4,8.2,4.8,2.2,12.7,2.1,17.6-.2,5-2.3,5.2-6,.4-8.2h0Z"/>
          <path class="st22" d="M83.8,467.1c-3.2,0-6.3-.5-8.7-1.7-2.4-1.1-3.7-2.7-3.7-4.4,0-1.8,1.5-3.5,4.1-4.7,5.1-2.4,13.2-2.5,18.1-.2h0c2.4,1.1,3.7,2.7,3.7,4.4,0,1.8-1.5,3.5-4.1,4.7-2.6,1.2-6,1.8-9.4,1.8ZM84.9,455.4c-3.2,0-6.5.6-9,1.8-2.3,1.1-3.6,2.5-3.6,3.8,0,1.3,1.1,2.5,3.2,3.5,4.6,2.2,12.4,2.1,17.2-.2,2.3-1.1,3.6-2.5,3.6-3.8,0-1.3-1.1-2.5-3.2-3.5-2.3-1.1-5.2-1.6-8.3-1.6ZM84.1,463.9c-1.5,0-3-.3-4.1-.8-1.2-.6-1.9-1.4-1.9-2.2,0-.9.7-1.8,2-2.4,2.4-1.1,6.2-1.1,8.4,0,1.2.6,1.9,1.4,1.9,2.2,0,.9-.7,1.8-2,2.4-1.2.6-2.8.9-4.4.9ZM84.6,458.6c-1.4,0-2.9.3-4,.8-.9.4-1.5,1-1.5,1.5,0,.5.5,1,1.3,1.3,2,1,5.5.9,7.6,0,.9-.4,1.5-1,1.5-1.5,0-.5-.5-1-1.3-1.3-1-.5-2.3-.7-3.6-.7Z"/>
        </g>
        <path class="st30" d="M93.4,456.5c4.8,2.2,4.6,5.9-.4,8.2-5,2.3-12.9,2.4-17.6.2-4.8-2.2-4.6-5.9.4-8.2,5-2.3,12.9-2.4,17.6-.2M95.8,455.4c-6.1-2.8-16.1-2.7-22.5.2-6.3,3-6.6,7.6-.5,10.5s16.1,2.7,22.5-.2c6.3-3,6.6-7.6.5-10.5h0Z"/>
      </g>
      <g>
        <path class="st27" d="M262.4,326.2l-8.2,2.5-.7,1.8-3.4,1-.4-1.5-43.1,13.1c-1.1.3-1.7,1.4-1.3,2.5l17.1,56.3c.3,1.1,1.4,1.7,2.5,1.3l56.3-17.1c1.1-.3,1.7-1.4,1.3-2.5l-17-55.9-3.2-1.6Z"/>
        <path class="st20" d="M281.4,386.3l-56.3,17.1c-1.2.4-2.4-.3-2.8-1.5l-17.1-56.3c-.4-1.2.3-2.4,1.5-2.8l43.3-13.2.4,1.5,3-.9.7-1.8,8.3-2.5,3.4,1.7,17,55.9c.4,1.2-.3,2.4-1.5,2.8ZM206.8,343.3c-1,.3-1.5,1.3-1.2,2.2l17.1,56.3c.3,1,1.3,1.5,2.2,1.2l56.3-17.1c1-.3,1.5-1.3,1.2-2.2l-16.9-55.8-3.1-1.5-8,2.4-.7,1.8-3.7,1.1-.4-1.5-42.9,13Z"/>
        <path class="st26" d="M257.3,346.3l-4.7-15.5-.7.2-.4-1.5-40.7,12.4,5.2,17s.3,1.8,2.9,1l4-1.2,28.6-8.7,4-1.2c2.6-.8,1.9-2.4,1.9-2.4Z"/>
        <path class="st20" d="M227.4,399.7l-.8-2.6s0-.3-.4-.2l-2.8.9c-.3.1-.2.4-.2.4l.8,2.6,3.4-1Z"/>
        <path class="st20" d="M281.2,383.4l-.8-2.6s0-.3-.4-.2l-2.8.9c-.3.1-.2.4-.2.4l.8,2.6,3.4-1Z"/>
        <polygon class="st20" points="226.2 390 229.8 401.8 230.5 401.6 227.1 390.3 226.2 390"/>
        <polygon class="st20" points="272.3 376 275.9 387.8 276.6 387.6 273.2 376.3 272.3 376"/>
        <path class="st22" d="M256.5,345.9l-5-16.4-40,12.2,5,16.4s.3,1.7,2.8,1l3.9-1.2,27.6-8.4,3.9-1.2c2.5-.8,1.8-2.4,1.8-2.4Z"/>
        <path class="st20" d="M254.7,348.5l-35.4,10.8c-1,.3-1.8.3-2.3,0-.6-.4-.7-1-.7-1.1l-5-16.6,40.4-12.3,5,16.6c0,.1.2.6,0,1.3-.3.6-.9,1.1-1.9,1.4ZM211.7,341.8l4.9,16.2s0,.5.6.8c.5.3,1.1.3,2,0l35.4-10.8c.9-.3,1.4-.6,1.6-1.1.2-.5,0-.9,0-.9h0s-4.9-16.2-4.9-16.2l-39.6,12Z"/>
        <g>
          <path class="st3" d="M256.5,345.9l-5-16.4-31.2,9.5,5,16.4s.3,1.7,2.8,1l3.9-1.2,18.8-5.7,3.9-1.2c2.5-.8,1.8-2.4,1.8-2.4Z"/>
          <path class="st20" d="M254.7,348.5l-26.6,8.1c-1,.3-1.8.3-2.3,0-.6-.4-.7-1-.7-1.1l-5-16.6,31.6-9.6,5,16.6c0,.1.2.6,0,1.3-.3.6-.9,1.1-1.9,1.4ZM220.6,339.1l4.9,16.2s0,.5.6.8c.5.3,1.1.3,2,0l26.6-8.1c.9-.3,1.4-.6,1.6-1.1.2-.5,0-.9,0-.9h0s-4.9-16.2-4.9-16.2l-30.8,9.4Z"/>
        </g>
        <g>
          <rect class="st22" x="243" y="334.1" width="6.8" height="14.4" transform="translate(-88.6 86.4) rotate(-16.9)"/>
          <path class="st20" d="M252,347.4l-6.9,2.1-4.3-14.2,6.9-2.1,4.3,14.2ZM245.4,348.9l6.1-1.9-4.1-13.4-6.1,1.9,4.1,13.4Z"/>
        </g>
        <rect class="st3" x="221.8" y="354.6" width="49" height="35.1" rx="4.6" ry="4.6" transform="translate(-97.5 87.7) rotate(-16.9)"/>
        <path class="st10" d="M225.7,388.4l1.7,5.7c.3,1.1,1.5,1.7,2.5,1.4l43-13c1.1-.3,1.7-1.5,1.4-2.5l-1.7-5.7-46.9,14.2Z"/>
        <g>
          <rect class="st10" x="227.5" y="377.1" width="40.6" height=".2" transform="translate(-99 88.3) rotate(-16.9)"/>
          <rect class="st10" x="225.8" y="371.7" width="40.6" height=".2" transform="translate(-97.5 87.6) rotate(-16.9)"/>
          <rect class="st10" x="224.2" y="366.2" width="40.6" height=".2" transform="translate(-95.9 86.9) rotate(-16.9)"/>
          <rect class="st10" x="222.5" y="360.8" width="40.6" height=".2" transform="translate(-94.4 86.2) rotate(-16.9)"/>
        </g>
        <polygon class="st22" points="211.3 347.4 208.8 345 208.3 348.3 209.3 348 210.1 350.5 211 350.2 210.3 347.7 211.3 347.4"/>
      </g>
    </g>
  </g>
</svg>