<?xml version="1.0" encoding="UTF-8"?><svg id="b" xmlns="http://www.w3.org/2000/svg" viewBox="0 0 660.24 575.11"><defs><style>.d,.e,.f,.g,.h,.i,.j,.k{stroke-linecap:round;stroke-linejoin:round;}.d,.e,.f,.g,.h,.k{stroke:#293330;}.d,.l{fill:#9ad1b6;}.e,.m{fill:#bdffdb;}.f,.n{fill:#293330;}.g,.o{fill:#f77327;}.h,.p{fill:#fff;}.i{stroke:#fff;}.i,.j,.k{fill:none;}.j{stroke:#9ad1b6;}.n,.l,.m,.q,.p,.o{stroke-width:0px;}.q{fill:#b75c2d;}</style></defs><g id="c"><path class="d" d="M63.65,339.86c-9.98,0-19.8-1.37-29.01-4.11-17.67-5.27-30.14-14.89-33.35-25.75-2.2-7.44-2.68-26.1,40.24-38.8,7.08-2.09,30.16-11.52,30.16-44.94,0-8.41,1.96-13.46,5.98-15.46,5.3-2.63,11.28,1.73,11.95,2.24,1.13.86,1.35,2.48.49,3.61-.86,1.13-2.47,1.35-3.6.49-1.04-.78-4.47-2.76-6.55-1.72-1.98.99-3.11,4.94-3.11,10.84,0,9.35-2.44,40.59-33.85,49.88-27.08,8.01-40.48,19.82-36.76,32.4,2.67,9.04,14.12,17.58,29.88,22.27,18.02,5.37,38.54,5.19,57.79-.5l429.88-127.08c21.84-6.45,43.73-7.66,63.3-3.48,18.63,3.98,33.66,12.67,42.31,24.47,11.73,16,10.84,35.71-2.5,55.5l-9.33,13.84c-.79,1.18-2.39,1.49-3.57.7-1.18-.79-1.49-2.39-.7-3.57l9.33-13.84c12.03-17.85,12.96-35.46,2.61-49.58-7.91-10.78-21.84-18.77-39.23-22.48-18.74-4-39.75-2.83-60.76,3.38l-429.88,127.08c-10.38,3.07-21.14,4.61-31.71,4.61Z"/><path class="n" d="M97.19,306c-1.5.44-1.88,1.77-.84,2.94l63.9,72.19c1.04,1.17,3.12,1.77,4.62,1.33l215.07-63.58c7.01-2.07,8.78-8.24,3.93-13.71l-56.98-64.39c-1.04-1.17-3.12-1.77-4.62-1.33l-225.08,66.55Z"/><path class="p" d="M334.75,3.02h0c-1.98-2.23-5.18-3.14-8.77-2.07L117.2,62.66c-3.73,1.1-7.03,4.06-8.99,7.64l61.3,69.24-4.6,226.95,73.06-80.12,87.9-25.98c5.98-1.77,10.88-8.32,10.89-14.56l.04-136.5,46.72-51.24L334.75,3.02Z"/><line class="i" x1="161.52" y1="125.99" x2="110.23" y2="68.06"/><path class="p" d="M108.2,70.3c-1.19,2.17-1.89,4.57-1.89,6.92l-.04,84.77c0,2.34-1.32,5.65-2.93,7.35l-13.09,13.85c-1.61,1.7-2.93,5.01-2.93,7.35l-.05,102.04c0,2.49.79,4.56,2.1,6.05l67.67,76.47,7.85-8.61,4.6-226.95-61.3-69.24Z"/><polyline class="l" points="87.27 258.93 123.48 299.85 123.48 303.92 87.27 263"/><polyline class="l" points="87.27 248.04 123.48 288.96 123.48 293.03 87.27 252.11"/><polyline class="l" points="87.27 237.16 123.48 278.07 123.48 282.14 87.27 241.22"/><polyline class="l" points="87.27 226.27 123.48 267.18 123.48 271.25 87.27 230.34"/><polyline class="l" points="87.27 215.38 123.48 256.29 123.48 260.36 87.27 219.45"/><polyline class="l" points="87.27 204.49 123.48 245.4 123.48 249.47 87.27 208.56"/><path class="k" d="M383.51,58.09L334.75,3.02h0c-1.98-2.23-5.18-3.14-8.77-2.07L117.2,62.66c-5.98,1.77-10.88,8.32-10.89,14.56l-.04,84.77c0,2.34-1.32,5.65-2.93,7.35l-13.09,13.85c-1.61,1.7-2.93,5.01-2.93,7.35l-.05,102.04c0,2.49.79,4.56,2.1,6.05l67.67,76.47,80.91-88.73,87.9-25.98c5.98-1.77,10.88-8.32,10.89-14.56l.04-136.5,46.72-51.24Z"/><path class="h" d="M374.72,56.01c5.98-1.77,10.88,1.89,10.88,8.13l-.11,236.75c0,6.24-4.9,12.79-10.89,14.56l-208.78,61.72c-5.98,1.77-10.88-1.89-10.88-8.13l.11-236.75c0-6.24,4.9-12.79,10.89-14.56l208.78-61.72Z"/><path class="j" d="M385.6,261.51l-230.65,68.19-13.58-15.35c-.73-.82-1.32-2.39-1.32-3.49v-137.28c0-1.1-.6-2.66-1.32-3.48l-32.44-36.57"/><path class="l" d="M372.3,61.5c5.06-1.5,9.2,1.6,9.2,6.88l-.09,162.18c0,5.28-4.15,10.82-9.21,12.32l-203.94,60.29c-5.06,1.5-9.2-1.6-9.2-6.88l.09-162.18c0-5.28,4.15-10.82,9.21-12.32l203.94-60.29Z"/><path class="l" d="M372.3,61.5l-203.94,60.29c-5.06,1.5-9.21,7.04-9.21,12.32l-.09,162.18c0,2.85,1.21,5.05,3.12,6.25l15.95-31.89,167.92-186.97,32.99-21.09c-1.68-1.39-4.08-1.88-6.73-1.1Z"/><line class="j" x1="348.18" y1="84.54" x2="380.3" y2="64.01"/><line class="j" x1="164.32" y1="303.4" x2="180.26" y2="271.5"/><path class="f" d="M180.3,128.96c-3.21.95-5.84,4.46-5.84,7.81l.02,133.99c0,2.57,2.31,4.54,4.84,4.13,10.09-1.63,37.08-6.9,91.62-23.02,49.4-14.6,71.06-23.51,79.3-27.35,2.73-1.27,4.6-3.88,4.92-6.87.97-8.92,2.85-30.4,2.85-62.72,0-34.31-1.99-61.42-2.93-72.32-.23-2.68-2.87-4.48-5.45-3.72l-169.33,50.06Z"/><path class="k" d="M372.3,61.5c5.06-1.5,9.2,1.6,9.2,6.88l-.09,162.18c0,5.28-4.15,10.82-9.21,12.32l-203.94,60.29c-5.06,1.5-9.2-1.6-9.2-6.88l.09-162.18c0-5.28,4.15-10.82,9.21-12.32l203.94-60.29Z"/><path class="h" d="M287.21,299.74c0-1.15.9-2.36,2-2.68l74.52-22.03c1.1-.33,2,.35,2,1.5s-.9,2.36-2,2.68l-74.52,22.03c-1.1.33-2-.35-2-1.5Z"/><path class="f" d="M363.73,275.03l-74.52,22.03c-.94.28-1.72,1.19-1.94,2.17.15,0,.31-.03.47-.07l74.52-22.03c.94-.28,1.72-1.19,1.94-2.17-.15,0-.31.03-.47.07Z"/><path class="g" d="M181.38,332.19l-1.68-1.89h0c-.37-.41-.95-.58-1.61-.38l-7.43,2.2c-1.1.33-2,1.53-2,2.68,0,.46.15.84.39,1.11h0s1.68,1.9,1.68,1.9l10.67-5.61Z"/><path class="g" d="M170.32,336.69c0-1.15.9-2.36,2-2.68l7.43-2.2c1.1-.33,2,.35,2,1.5s-.9,2.36-2,2.68l-7.43,2.2c-1.1.33-2-.35-2-1.5Z"/><path class="n" d="M370.68,558.02c-2.88,0-5.79-.17-8.7-.54-19.83-2.47-32.79-12.91-35.56-28.64l-11.53-65.48c-2.54-14.4-13.08-26.9-28.94-34.29-19.3-9-41.38-8.28-59.07,1.93l-33.94,19.59c-1.03.59-2.34.24-2.93-.79-.59-1.03-.24-2.34.79-2.93l33.94-19.59c18.9-10.91,42.47-11.7,63.03-2.11,17.14,8,28.57,21.64,31.35,37.44l11.53,65.48c3.44,19.52,23.43,24.07,31.87,25.12,19.36,2.41,39.6-4.18,44.2-14.39,3.18-7.06-2.4-14.03-7.63-18.62l-10.91-9.58c-.89-.78-.98-2.14-.2-3.03.78-.89,2.14-.98,3.03-.2l10.91,9.58c11.45,10.06,11.06,18.39,8.71,23.61-4.66,10.36-21.59,17.42-39.94,17.42Z"/><path class="o" d="M370.46,557.15c-.71,0-1.29-.58-1.29-1.29s.58-1.29,1.29-1.29c17.82,0,33.86-6.91,37.31-16.08,2.18-5.79-.63-12.33-8.13-18.92l-10.91-9.58c-.53-.47-.59-1.28-.12-1.82.47-.53,1.28-.59,1.82-.12l10.91,9.58c10.59,9.3,10.65,16.97,8.84,21.77-4.39,11.65-23.3,17.75-39.72,17.75Z"/><path class="f" d="M339.91,392.64l62.95-103.54c2.66-3.93,10.34-5.88,17.11-4.35l3.02.68,8.84-13.06c2.66-3.93,10.34-5.88,17.11-4.35l190.25,42.92c6.78,1.53,10.12,5.97,7.46,9.9l-74.72,110.34c-.69,1.02-1.72,1.9-2.97,2.62l-17.2,9.93c-3.6,2.08-9.12,2.86-14.14,1.72l-190.25-42.92c-6.77-1.53-10.12-5.97-7.46-9.9Z"/><path class="p" d="M339,368.65l32.18-10.05,43.46-64.17c2.66-3.93,10.34-5.88,17.11-4.35l119.24,14.78,79.38-18.38v41.5h-.01c0,.93-.28,1.87-.9,2.79l-74.72,110.34c-2.66,3.93-10.33,5.88-17.11,4.35l-190.25-42.92c-5.19-1.17-8.36-4.06-8.36-7.11h-.01s0-26.78,0-26.78Z"/><line class="i" x1="544.79" y1="404.34" x2="544.79" y2="445.92"/><path class="p" d="M630.37,286.48v41.5h-.01c0,.93-.28,1.87-.9,2.79l-74.72,110.34c-1.21,1.79-3.48,3.17-6.21,3.99v-45.09s77.25-112.47,77.25-112.47l4.61-1.07Z"/><path class="k" d="M339,368.65l32.18-10.05,43.46-64.17c2.66-3.93,10.34-5.88,17.11-4.35l119.24,14.78,79.38-18.38v41.5h-.01c0,.93-.28,1.87-.9,2.79l-74.72,110.34c-2.66,3.93-10.33,5.88-17.11,4.35l-190.25-42.92c-5.19-1.17-8.36-4.06-8.36-7.11h-.01s0-26.78,0-26.78Z"/><path class="p" d="M355.58,330.48c.51-2.12,1.93-5.32,3.15-7.13l55.91-82.55c2.66-3.93,10.34-5.88,17.11-4.35l190.25,42.92c6.78,1.53,10.12,5.97,7.46,9.9l-55.91,82.55c-1.22,1.8-2.64,5.01-3.15,7.13l-3.62,14.98c-.51,2.12-1.93,5.32-3.15,7.13l-8.9,13.14c-2.66,3.93-10.33,5.88-17.11,4.35l-190.25-42.92c-6.77-1.53-10.12-5.97-7.46-9.9l8.9-13.14c1.22-1.8,2.64-5.01,3.15-7.13l3.62-14.98Z"/><path class="p" d="M362.54,327.74c-2.12-.48-4.25.87-4.73,2.99l-3.43,15.21c-.48,2.12.87,4.25,2.99,4.73l200.9,45.33c2.92.66,5.84-1.19,6.5-4.11l2.78-12.32c.66-2.92-1.19-5.85-4.11-6.5l-200.9-45.33Z"/><path class="k" d="M355.58,330.48c.51-2.12,1.93-5.32,3.15-7.13l55.91-82.55c2.66-3.93,10.34-5.88,17.11-4.35l190.25,42.92c6.78,1.53,10.12,5.97,7.46,9.9l-55.91,82.55c-1.22,1.8-2.64,5.01-3.15,7.13l-3.62,14.98c-.51,2.12-1.93,5.32-3.15,7.13l-8.9,13.14c-2.66,3.93-10.33,5.88-17.11,4.35l-190.25-42.92c-6.77-1.53-10.12-5.97-7.46-9.9l8.9-13.14c1.22-1.8,2.64-5.01,3.15-7.13l3.62-14.98Z"/><path class="j" d="M377.97,335.16c.55-2.34,2.11-5.89,3.46-7.88l31.15-46c2.32-3.43,9.03-5.14,14.94-3.8l149.33,33.69c5.92,1.34,8.84,5.21,6.51,8.64l-31.15,46c-1.35,1.99-2.88,5.55-3.4,7.9l-.75,3.39c-.98,4.44-5.42,7.25-9.85,6.25l-154.87-34.94c-4.43-1-7.21-5.44-6.16-9.86l.8-3.38Z"/><path class="f" d="M557.19,340.22c1.62.37,3.7-.46,4.63-1.83l6.32-9.33c.93-1.37.37-2.8-1.25-3.16l-149.3-33.68c-1.62-.37-3.7.46-4.63,1.83l-6.32,9.33c-.93,1.37-.37,2.8,1.25,3.16l149.3,33.68Z"/><path class="f" d="M407.9,375.76c-.66.98.17,2.08,1.85,2.46l78.15,17.63c1.69.38,3.59-.11,4.25-1.08.66-.98-.17-2.08-1.85-2.46l-78.15-17.63c-1.68-.38-3.59.11-4.25,1.08Z"/><path class="g" d="M463.18,387.55l27.12,6.12c.89.2,1.54.61,1.86,1.09,0,0,0,0,0,.01-.66.98-2.57,1.46-4.25,1.08l-27.12-6.12c-.89-.2-1.54-.61-1.86-1.09,0,0,0,0,0-.01.66-.98,2.57-1.46,4.25-1.08Z"/><path class="h" d="M445.91,382.34l23.58,3.83v2.74h0c0,.23-.07.47-.22.69-.66.98-2.57,1.46-4.25,1.08l-17.02-3.84c-1.29-.29-2.08-1.01-2.08-1.77h0v-2.74Z"/><path class="h" d="M446.14,381.65c-.66.98.17,2.08,1.85,2.46l17.02,3.84c1.69.38,3.59-.11,4.25-1.08.66-.98-.17-2.08-1.85-2.46l-17.02-3.84c-1.68-.38-3.59.11-4.25,1.08Z"/><polygon class="f" points="566.37 229.8 575.57 216.22 408.4 178.51 399.2 192.08 566.37 229.8"/><polygon class="d" points="413.7 195.35 422.9 181.78 408.4 178.51 399.2 192.08 413.7 195.35"/><path class="g" d="M418.31,170.76c0-3.95,3.15-6.47,7-5.6l117.31,26.47c3.85.87,7,4.81,7,8.76v71.13c0,3.95-3.15,6.47-7,5.6l-117.31-26.47c-3.85-.87-7-4.81-7-8.76v-71.13Z"/><polygon class="q" points="507.45 183.69 452.36 256.75 477.42 262.4 532.51 189.35 507.45 183.69"/><path class="k" d="M418.31,170.76c0-3.95,3.15-6.47,7-5.6l117.31,26.47c3.85.87,7,4.81,7,8.76v71.13c0,3.95-3.15,6.47-7,5.6l-117.31-26.47c-3.85-.87-7-4.81-7-8.76v-71.13Z"/><polygon class="d" points="566.37 327.43 575.57 313.86 575.57 216.22 566.37 229.8 566.37 327.43"/><polygon class="d" points="566.37 229.8 399.2 192.08 399.2 289.72 409.24 299.3 409.24 304.19 556.34 337.37 556.34 332.49 566.37 327.43 566.37 229.8"/><polygon class="d" points="566.37 229.8 575.57 216.22 561.07 212.95 551.87 226.53 566.37 229.8"/><path class="n" d="M401.78,392.07c-3.07-.69-5.58,1.32-5.58,4.46v7.47c0,3.15,2.51,6.29,5.58,6.98l79.22,17.87c3.07.69,5.58-1.32,5.58-4.46v-7.47c0-3.15-2.51-6.29-5.58-6.98l-79.22-17.87Z"/><path class="m" d="M440.38,408.33c0-1.4-1.12-2.8-2.48-3.11l-21.81-4.92c-.9-.2-1.68.12-2.12.76h0s-6.8,10.03-6.8,10.03h0c-.23.34-.36.75-.36,1.23v4.24c0,1.4,1.12,2.8,2.48,3.11l21.81,4.92c.9.2,1.68-.12,2.12-.76h0s6.8-10.03,6.8-10.03h0c.23-.34.36-.75.36-1.23v-4.24Z"/><path class="n" d="M440.38,408.33c0-.63-.24-1.26-.61-1.79h0l-6.84,9.98-4.33,7.51,2.5.56c.9.2,1.68-.12,2.12-.76h0s6.8-10.03,6.8-10.03h0c.23-.34.36-.75.36-1.23v-4.24Z"/><path class="k" d="M433.23,423.84l6.8-10.04h0c.23-.34.36-.75.36-1.23v-4.24c0-1.4-1.12-2.8-2.48-3.11l-21.81-4.92c-.9-.2-1.68.12-2.12.76h0s-6.8,10.03-6.8,10.03"/><path class="e" d="M409.29,410.35c-1.37-.31-2.48.59-2.48,1.99v4.24c0,1.4,1.12,2.8,2.48,3.11l21.81,4.92c1.37.31,2.48-.59,2.48-1.99v-4.24c0-1.4-1.12-2.8-2.48-3.11l-21.81-4.92Z"/><path class="m" d="M470.21,415.07c0-1.4-1.12-2.8-2.48-3.11l-21.81-4.92c-.9-.2-1.68.12-2.12.76h0s-6.8,10.03-6.8,10.03h0c-.23.34-.36.75-.36,1.23v4.24c0,1.4,1.12,2.8,2.48,3.11l21.81,4.92c.9.2,1.68-.12,2.12-.76h0s6.8-10.03,6.8-10.03h0c.23-.34.36-.75.36-1.23v-4.24Z"/><path class="n" d="M470.21,415.07c0-.63-.24-1.26-.61-1.79h0l-6.84,9.98-4.33,7.51,2.5.56c.9.2,1.68-.12,2.12-.76h0s6.8-10.03,6.8-10.03h0c.23-.34.36-.75.36-1.23v-4.24Z"/><path class="k" d="M463.06,430.57l6.8-10.04h0c.23-.34.36-.75.36-1.23v-4.24c0-1.4-1.12-2.8-2.48-3.11l-21.81-4.92c-.9-.2-1.68.12-2.12.76h0s-6.8,10.03-6.8,10.03"/><path class="e" d="M439.12,417.08c-1.37-.31-2.48.59-2.48,1.99v4.24c0,1.4,1.12,2.8,2.48,3.11l21.81,4.92c1.37.31,2.48-.59,2.48-1.99v-4.24c0-1.4-1.12-2.8-2.48-3.11l-21.81-4.92Z"/><path class="f" d="M252.22,477.36l4.6-2.65c2.8-1.61,2.8-4.25,0-5.87l-8.47-4.89,3.87,13.41Z"/><path class="p" d="M241.26,464.05l-99.98-57.72c-3.33-1.92-8.77-1.92-12.1,0l-31.44,18.15h-13.46v9.82c0,1.27.83,2.53,2.5,3.49l110.95,64.06c3.33,1.92,8.77,1.92,12.1,0l42.4-24.48c1.66-.96,2.5-2.23,2.5-3.49v-9.82h-13.46Z"/><rect class="p" x="203.61" y="493.46" width="1.27" height="9.7"/><path class="p" d="M84.28,424.47v9.82c0,1.27.83,2.53,2.5,3.49l110.95,64.06c1.19.69,2.66,1.13,4.2,1.32v-12.73l-111.03-65.96h-6.62Z"/><path class="k" d="M241.26,464.05l-99.98-57.72c-3.33-1.92-8.77-1.92-12.1,0l-31.44,18.15h-13.46v9.82c0,1.27.83,2.53,2.5,3.49l110.95,64.06c3.33,1.92,8.77,1.92,12.1,0l42.4-24.48c1.66-.96,2.5-2.23,2.5-3.49v-9.82h-13.46Z"/><path class="h" d="M197.73,492.02c3.33,1.92,8.77,1.92,12.1,0l42.4-24.48c3.33-1.92,3.33-5.06,0-6.98l-110.95-64.06c-3.33-1.92-8.77-1.92-12.1,0l-42.4,24.48c-3.33,1.92-3.33,5.06,0,6.98l110.95,64.06Z"/><path class="l" d="M125.18,447.7c2.21,1.28,5.84,1.28,8.05,0l36.25-20.93c2.21-1.28,2.21-3.37,0-4.65l-36.25-20.93c-2.21-1.28-5.84-1.28-8.05,0l-36.25,20.93c-2.21,1.28-2.21,3.37,0,4.65l36.25,20.93Z"/><path class="l" d="M199.59,490.66c2.21,1.28,5.84,1.28,8.05,0l36.25-20.93c2.21-1.28,2.21-3.37,0-4.65l-36.25-20.93c-2.21-1.28-5.84-1.28-8.05,0l-36.25,20.93c-2.21,1.28-2.21,3.37,0,4.65l36.25,20.93Z"/><path class="d" d="M144.93,420.17c.59-.34.89-.79.89-1.24v-2.86h-3.68l-1.84-1.06c-1.19-.68-3.13-.68-4.31,0l-6.78,3.92-6.78-3.92c-1.19-.68-3.13-.68-4.31,0l-1.84,1.06h-3.68v2.86c0,.45.3.9.89,1.24l6.78,3.92-3.99,2.31h-3.68v2.86c0,.45.3.9.89,1.24l4.63,2.67c1.19.68,3.13.68,4.31,0l6.78-3.92,6.78,3.92c1.19.68,3.13.68,4.31,0l4.63-2.67c.59-.34.89-.79.89-1.24v-2.86h-3.68l-3.99-2.31,6.78-3.92Z"/><path class="n" d="M128.03,429.93l1.18-.68,6.78,3.92c.58.33,1.33.5,2.09.51v-4.19l-8.88-3.09-1.18,3.54Z"/><path class="n" d="M120.05,429.02l-5.17-2.62h-2.28v2.86c0,.45.3.9.89,1.24l4.63,2.67c.54.31,1.23.47,1.94.5v-4.65Z"/><path class="f" d="M144.93,427.64c1.19-.68,1.19-1.81,0-2.49l-6.78-3.92,6.78-3.92c1.19-.68,1.19-1.81,0-2.49l-4.63-2.67c-1.19-.68-3.13-.68-4.31,0l-6.78,3.92-6.78-3.92c-1.19-.68-3.13-.68-4.31,0l-4.63,2.67c-1.19.68-1.19,1.81,0,2.49l6.78,3.92-6.78,3.92c-1.19.68-1.19,1.81,0,2.49l4.63,2.67c1.19.68,3.13.68,4.31,0l6.78-3.92,6.78,3.92c1.19.68,3.13.68,4.31,0l4.63-2.67Z"/><ellipse class="o" cx="129.13" cy="421.23" rx="2.35" ry="1.36"/><polygon class="p" points="135.38 415.68 138.42 417.43 139.25 415.2 135.38 415.68"/><polygon class="p" points="122.59 426.66 119.56 424.91 118.73 427.14 122.59 426.66"/><polygon class="p" points="135.38 426.66 138.42 424.91 139.25 427.14 135.38 426.66"/><polygon class="p" points="122.59 415.68 119.56 417.43 118.73 415.2 122.59 415.68"/><path class="p" d="M195.81,460.43h16.87c6.26,0,11.33,2.93,11.33,6.54s-5.07,6.54-11.33,6.54h-16.87c-6.26,0-11.33-2.93-11.33-6.54s5.07-6.54,11.33-6.54Z"/><path class="l" d="M219.55,465.39c0-2.19-3.08-3.97-6.87-3.97s-6.87,1.78-6.87,3.97c0,0,0,0,0,0v2.57c0,2.19,3.08,3.97,6.87,3.97s6.87-1.78,6.87-3.97v-2.57h0Z"/><path class="n" d="M205.81,465.39v2.57c0,2.19,3.08,3.97,6.87,3.97v-6.54h-6.87Z"/><ellipse class="o" cx="212.68" cy="465.39" rx="6.87" ry="3.97"/><path class="k" d="M219.55,465.39c0-2.19-3.08-3.97-6.87-3.97s-6.87,1.78-6.87,3.97c0,0,0,0,0,0v2.57c0,2.19,3.08,3.97,6.87,3.97s6.87-1.78,6.87-3.97v-2.57h0Z"/><path class="l" d="M202.68,465.39c0-2.19-3.08-3.97-6.87-3.97s-6.87,1.78-6.87,3.97c0,0,0,0,0,0v2.57c0,2.19,3.08,3.97,6.87,3.97s6.87-1.78,6.87-3.97v-2.57h0Z"/><path class="n" d="M188.94,465.39v2.57c0,2.19,3.08,3.97,6.87,3.97v-6.54h-6.87Z"/><ellipse class="n" cx="195.81" cy="465.39" rx="6.87" ry="3.97"/><path class="k" d="M202.68,465.39c0-2.19-3.08-3.97-6.87-3.97s-6.87,1.78-6.87,3.97c0,0,0,0,0,0v2.57c0,2.19,3.08,3.97,6.87,3.97s6.87-1.78,6.87-3.97v-2.57h0Z"/><path class="h" d="M166.79,443.2h0l-9.06-5.23c-1.17-.68-3.08-.68-4.25,0-.59.34-.88.78-.88,1.23v2.34c0,.45.29.89.88,1.23l8.97,5.18v-2.34l4.34-2.41Z"/><path class="g" d="M176.32,453.5c.58-.34.88-.78.88-1.23v-2.34c0-.44-.29-.89-.88-1.23l-9.53-5.5h0l-4.34,2.41v2.34l9.62,5.55c1.17.68,3.08.68,4.25,0Z"/><path class="k" d="M172.07,451.16c1.17.68,3.08.68,4.25,0s1.17-1.78,0-2.46l-18.59-10.73c-1.17-.68-3.08-.68-4.25,0s-1.17,1.78,0,2.46l18.59,10.73Z"/><path class="n" d="M391.22,525.09c-20.43,0-37.78-6.83-46.05-15.47-4.85-5.06-6.64-10.81-5.03-16.19,1.93-6.45,9.61-15.36,35.21-21.2l31.59-7.21c5.19-1.19,10.17-1.95,14.89-2.35l26.51-38.56c.67-.98,2.01-1.22,2.98-.55.98.67,1.22,2.01.55,2.98l-24.63,35.82c23.36-.62,39.3,8.15,41.94,19.21,1.8,7.54-2.89,17.25-21.48,21.89l-7.57,1.89c-16.08,4.01-23.44-.89-26.79-5.7-5.01-7.22-3.9-18.97,2.7-28.59l2.59-3.77c-3.42.42-7.01,1.05-10.75,1.9l-31.59,7.21c-24.83,5.67-30.74,13.87-32.06,18.25-1.47,4.91,1.37,9.23,4.01,11.98,13.42,14.02,43.48,16.81,64.78,11.41l115.25-29.2c10.83-2.74,23.74,3.13,28.79,13.1.54,1.06.11,2.35-.94,2.88-1.06.53-2.35.11-2.88-.94-4.12-8.13-15.07-13.12-23.91-10.87l-115.25,29.2c-7.84,1.99-15.56,2.86-22.89,2.87ZM424.21,466.78l-4.62,6.73c-5.52,8.05-6.67,18.02-2.72,23.71,3.69,5.32,11.37,6.7,22.22,3.99l7.57-1.89c13-3.25,20.03-9.66,18.34-16.73-2.07-8.67-16.91-17.33-40.8-15.8Z"/><path class="p" d="M659.74,527.36l-20.75-4.8-5.45-8.05c-1.72-2.54-6.67-3.79-11.04-2.81l-76.91,17.35-72.57-7.03v9.82h0c0,.6.18,1.21.58,1.8l25.62,37.83c1.72,2.54,6.67,3.79,11.04,2.81l144.08-32.51c3.35-.76,5.4-2.62,5.39-4.59h0s0-9.82,0-9.82Z"/><line class="i" x1="505.63" y1="564.7" x2="505.63" y2="574.57"/><path class="p" d="M473.01,522.02v9.82h0c0,.6.18,1.21.58,1.8l25.62,37.83c.78,1.16,2.24,2.04,4.01,2.58v-12.13l-27.24-39.2-2.97-.69Z"/><path class="k" d="M659.74,527.36l-20.75-4.8-5.45-8.05c-1.72-2.54-6.67-3.79-11.04-2.81l-76.91,17.35-72.57-7.03v9.82h0c0,.6.18,1.21.58,1.8l25.62,37.83c1.72,2.54,6.67,3.79,11.04,2.81l144.08-32.51c3.35-.76,5.4-2.62,5.39-4.59h0s0-9.82,0-9.82Z"/><path class="h" d="M659.15,525.56c1.72,2.54-.45,5.4-4.81,6.38l-144.08,32.51c-4.37.99-9.32-.27-11.04-2.81l-25.62-37.83c-1.72-2.54.44-5.4,4.81-6.38l144.08-32.51c4.37-.99,9.32.27,11.04,2.81l25.62,37.83Z"/><path class="l" d="M655.61,525.91c1.06,1.56-.27,3.32-2.96,3.93l-46.07,10.39c-2.69.61-5.73-.17-6.79-1.73l-21.38-31.57c-1.06-1.56.27-3.32,2.96-3.93l46.07-10.39c2.69-.61,5.73.17,6.79,1.73l21.38,31.57Z"/><path class="l" d="M557.79,547.98c1.06,1.56-.27,3.32-2.96,3.93l-46.07,10.39c-2.69.61-5.73-.17-6.79-1.73l-21.38-31.57c-1.06-1.56.27-3.32,2.96-3.93l46.07-10.39c2.69-.61,5.73.17,6.79,1.73l21.38,31.57Z"/><path class="d" d="M538.06,535.32h-1.56l-2.21-3.26c-.64-.94-2.48-1.41-4.1-1.04l-8,1.8-3.53-5.22c-.64-.94-2.48-1.41-4.1-1.04l-1.79.4h-6.19v2.65h0c0,.22.06.45.21.67l3.53,5.22-4.7,1.06v-.2h-5.31v2.65h0c0,.22.06.45.21.67l3.55,5.24c.64.94,2.48,1.41,4.1,1.04l8-1.8,3.53,5.22c.64.94,2.48,1.41,4.1,1.04l5.97-1.35c1.25-.28,2-.97,2-1.71h0v-2.65h-1.56l-2.19-3.24,8-1.8c1.25-.28,2-.97,2-1.71h0v-2.65Z"/><path class="n" d="M521.32,538.49l-5.13,3.02-1.59,3.01,1.59-.36,3.53,5.22c.31.45.89.79,1.59.98v-11.87Z"/><path class="n" d="M500.32,536.36v2.65h0c0,.22.06.45.21.67l3.55,5.24c.36.53,1.11.9,1.97,1.07v-3.64l-4.41-5.98h-1.33Z"/><path class="n" d="M508.1,526.96h-1.52v2.65h0c0,.22.06.45.21.67l3.53,5.22v-6.49l-2.23-2.05Z"/><path class="f" d="M537.85,534.65l-3.55-5.24c-.64-.94-2.48-1.41-4.1-1.04l-8,1.8-3.53-5.22c-.64-.94-2.48-1.41-4.1-1.04l-5.97,1.35c-1.63.37-2.43,1.43-1.79,2.37l3.53,5.22-8,1.8c-1.63.37-2.43,1.43-1.79,2.37l3.55,5.24c.64.94,2.48,1.41,4.1,1.04l8-1.8,3.53,5.22c.64.94,2.48,1.41,4.1,1.04l5.97-1.35c1.62-.37,2.43-1.43,1.79-2.37l-3.53-5.22,8-1.8c1.62-.37,2.43-1.43,1.79-2.37Z"/><ellipse class="o" cx="519.19" cy="535.84" rx="2.35" ry="1.36"/><polygon class="p" points="521.54 542.9 525.59 541.99 524.98 544.42 521.54 542.9"/><polygon class="p" points="516.84 528.81 512.79 529.73 513.4 527.29 516.84 528.81"/><polygon class="p" points="508.42 536.46 510.54 539.59 506.26 538.68 508.42 536.46"/><polygon class="p" points="530 535.1 527.88 531.97 532.16 532.88 530 535.1"/><path class="p" d="M632.45,510.7c0-3.33-4.67-6.03-10.44-6.03-4.56,0-8.43,1.69-9.85,4.05h-.01s-6.12,10.16-6.12,10.16h.01c-.37.62-.59,1.29-.59,1.98,0,3.33,4.67,6.03,10.44,6.03,4.56,0,8.43-1.69,9.85-4.05h.01s6.12-10.16,6.12-10.16h-.01c.37-.62.59-1.29.59-1.98Z"/><path class="l" d="M628.88,508.13c0-2.19-3.08-3.97-6.87-3.97s-6.87,1.78-6.87,3.97c0,0,0,0,0,0v2.57c0,2.19,3.08,3.97,6.87,3.97s6.87-1.78,6.87-3.97v-2.57h0Z"/><path class="n" d="M615.14,508.13v2.57c0,2.19,3.08,3.97,6.87,3.97v-6.54h-6.87Z"/><ellipse class="o" cx="622.01" cy="508.13" rx="6.87" ry="3.97"/><path class="k" d="M628.88,508.13c0-2.19-3.08-3.97-6.87-3.97s-6.87,1.78-6.87,3.97c0,0,0,0,0,0v2.57c0,2.19,3.08,3.97,6.87,3.97s6.87-1.78,6.87-3.97v-2.57h0Z"/><path class="l" d="M622.76,518.64c0-2.19-3.08-3.97-6.87-3.97s-6.87,1.78-6.87,3.97c0,0,0,0,0,0v2.57c0,2.19,3.08,3.97,6.87,3.97s6.87-1.78,6.87-3.97v-2.57h0Z"/><path class="n" d="M609.02,518.64v2.57c0,2.19,3.08,3.97,6.87,3.97v-6.54h-6.87Z"/><ellipse class="n" cx="615.89" cy="518.64" rx="6.87" ry="3.97"/><path class="k" d="M622.76,518.64c0-2.19-3.08-3.97-6.87-3.97s-6.87,1.78-6.87,3.97c0,0,0,0,0,0v2.57c0,2.19,3.08,3.97,6.87,3.97s6.87-1.78,6.87-3.97v-2.57h0Z"/><path class="g" d="M583.23,522.77c0-.23-.07-.47-.22-.69-.66-.98-2.57-1.46-4.25-1.08l-12.5,2.82h0l2.4,3.54v1.88h0l12.5-2.82c1.29-.29,2.08-1.01,2.08-1.77h0v-1.88h0Z"/><path class="h" d="M568.66,527.36l-2.4-3.54h0l-13.29,3c-1.29.29-2.07,1.01-2.07,1.77h0v1.88h0c0,.23.07.47.22.69.66.98,2.57,1.46,4.25,1.08l13.3-3h0v-1.88Z"/><path class="k" d="M583.01,522.07c.66.98-.17,2.08-1.85,2.46l-25.8,5.82c-1.68.38-3.59-.11-4.25-1.08-.66-.98.17-2.08,1.85-2.46l25.8-5.82c1.68-.38,3.59.11,4.25,1.08Z"/><path class="o" d="M361.37,556.53c-.06,0-.12,0-.18-.01-4.59-.64-8.89-1.75-12.77-3.3-.66-.26-.98-1.01-.72-1.67.26-.66,1.01-.98,1.67-.72,3.69,1.47,7.78,2.53,12.17,3.14.7.1,1.2.75,1.1,1.45-.09.64-.64,1.11-1.27,1.11Z"/><path class="n" d="M389.58,511.17c-.5,0-1.01-.18-1.42-.53-12.83-11.27-11.7-31.63,2.96-53.13l27.52-40.39c.67-.98,2-1.23,2.98-.57.98.67,1.23,2,.56,2.98l-27.52,40.39c-13.33,19.57-14.74,37.77-3.67,47.49.89.78.98,2.14.2,3.03-.42.48-1.02.73-1.61.73Z"/><path class="o" d="M392.69,513.04c-.3,0-.6-.11-.85-.32l-3.1-2.73c-12.48-10.96-11.29-30.89,3.1-52l27.52-40.39c.4-.59,1.2-.74,1.79-.34.59.4.74,1.2.34,1.79l-27.52,40.39c-13.6,19.96-14.95,38.59-3.53,48.62l3.1,2.73c.53.47.59,1.28.12,1.82-.25.29-.61.44-.97.44Z"/><polygon class="o" points="187.47 259.56 193.58 257.75 193.58 251.4 187.47 253.2 187.47 259.56"/><polygon class="o" points="187.47 263.12 193.58 261.32 193.58 259.35 187.47 261.15 187.47 263.12"/><polygon class="o" points="194.85 260.94 200.96 259.13 200.96 257.16 194.85 258.97 194.85 260.94"/><polygon class="o" points="202.23 239.3 208.34 237.49 208.34 231.14 202.23 232.94 202.23 239.3"/><polygon class="o" points="202.23 247.25 208.34 245.44 208.34 239.09 202.23 240.89 202.23 247.25"/><polygon class="o" points="202.23 255.2 208.34 253.39 208.34 247.03 202.23 248.84 202.23 255.2"/><polygon class="o" points="202.23 258.76 208.34 256.95 208.34 254.98 202.23 256.79 202.23 258.76"/><polygon class="o" points="209.6 229.17 215.72 227.36 215.72 221.01 209.6 222.81 209.6 229.17"/><polygon class="o" points="209.6 237.12 215.72 235.31 215.72 228.96 209.6 230.76 209.6 237.12"/><polygon class="o" points="209.6 245.07 215.72 243.26 215.72 236.9 209.6 238.71 209.6 245.07"/><polygon class="o" points="209.6 253.02 215.72 251.21 215.72 244.85 209.6 246.66 209.6 253.02"/><polygon class="o" points="209.6 256.58 215.72 254.77 215.72 252.8 209.6 254.61 209.6 256.58"/><polygon class="o" points="216.98 234.94 223.09 233.13 223.09 226.77 216.98 228.58 216.98 234.94"/><polygon class="o" points="216.98 242.89 223.09 241.08 223.09 234.72 216.98 236.53 216.98 242.89"/><polygon class="o" points="216.98 250.84 223.09 249.03 223.09 242.67 216.98 244.48 216.98 250.84"/><polygon class="o" points="216.98 254.4 223.09 252.59 223.09 250.62 216.98 252.43 216.98 254.4"/><polygon class="o" points="224.36 240.71 230.47 238.9 230.47 232.54 224.36 234.35 224.36 240.71"/><polygon class="o" points="224.36 248.65 230.47 246.85 230.47 240.49 224.36 242.3 224.36 248.65"/><polygon class="o" points="224.36 252.22 230.47 250.41 230.47 248.44 224.36 250.25 224.36 252.22"/><polygon class="o" points="231.74 222.63 237.85 220.82 237.85 214.46 231.74 216.27 231.74 222.63"/><polygon class="o" points="231.74 230.58 237.85 228.77 237.85 222.41 231.74 224.22 231.74 230.58"/><polygon class="o" points="231.74 238.52 237.85 236.72 237.85 230.36 231.74 232.17 231.74 238.52"/><polygon class="o" points="231.74 246.47 237.85 244.67 237.85 238.31 231.74 240.12 231.74 246.47"/><polygon class="o" points="231.74 250.04 237.85 248.23 237.85 246.26 231.74 248.07 231.74 250.04"/><polygon class="o" points="239.11 220.45 245.23 218.64 245.23 212.28 239.11 214.09 239.11 220.45"/><polygon class="o" points="239.11 228.39 245.23 226.59 245.23 220.23 239.11 222.04 239.11 228.39"/><polygon class="o" points="239.11 212.5 245.23 210.69 245.23 204.33 239.11 206.14 239.11 212.5"/><polygon class="o" points="239.11 204.55 245.23 202.74 245.23 196.38 239.11 198.19 239.11 204.55"/><polygon class="o" points="239.11 236.34 245.23 234.54 245.23 228.18 239.11 229.99 239.11 236.34"/><polygon class="o" points="239.11 244.29 245.23 242.49 245.23 236.13 239.11 237.94 239.11 244.29"/><polygon class="o" points="239.11 247.86 245.23 246.05 245.23 244.08 239.11 245.89 239.11 247.86"/><polygon class="o" points="246.49 218.26 252.6 216.46 252.6 210.1 246.49 211.91 246.49 218.26"/><polygon class="o" points="246.49 226.21 252.6 224.41 252.6 218.05 246.49 219.86 246.49 226.21"/><polygon class="o" points="246.49 210.32 252.6 208.51 252.6 202.15 246.49 203.96 246.49 210.32"/><polygon class="o" points="246.49 234.16 252.6 232.36 252.6 226 246.49 227.81 246.49 234.16"/><polygon class="o" points="246.49 242.11 252.6 240.3 252.6 233.95 246.49 235.76 246.49 242.11"/><polygon class="o" points="246.49 245.67 252.6 243.87 252.6 241.9 246.49 243.71 246.49 245.67"/><polygon class="o" points="253.87 231.98 259.98 230.17 259.98 223.82 253.87 225.63 253.87 231.98"/><polygon class="o" points="253.87 239.93 259.98 238.12 259.98 231.77 253.87 233.58 253.87 239.93"/><polygon class="o" points="253.87 243.49 259.98 241.69 259.98 239.72 253.87 241.52 253.87 243.49"/><polygon class="o" points="261.25 213.9 267.36 212.1 267.36 205.74 261.25 207.55 261.25 213.9"/><polygon class="o" points="261.25 221.85 267.36 220.04 267.36 213.69 261.25 215.5 261.25 221.85"/><polygon class="o" points="261.25 229.8 267.36 227.99 267.36 221.64 261.25 223.45 261.25 229.8"/><polygon class="o" points="261.25 237.75 267.36 235.94 267.36 229.59 261.25 231.39 261.25 237.75"/><polygon class="o" points="261.25 241.31 267.36 239.51 267.36 237.54 261.25 239.34 261.25 241.31"/><polygon class="o" points="268.62 211.72 274.74 209.91 274.74 203.56 268.62 205.37 268.62 211.72"/><polygon class="o" points="268.62 219.67 274.74 217.86 274.74 211.51 268.62 213.32 268.62 219.67"/><polygon class="o" points="268.62 203.77 274.74 201.97 274.74 195.61 268.62 197.42 268.62 203.77"/><polygon class="o" points="268.62 227.62 274.74 225.81 274.74 219.46 268.62 221.26 268.62 227.62"/><polygon class="o" points="268.62 235.57 274.74 233.76 274.74 227.41 268.62 229.21 268.62 235.57"/><polygon class="o" points="268.62 239.13 274.74 237.32 274.74 235.35 268.62 237.16 268.62 239.13"/><polygon class="o" points="276 225.44 282.11 223.63 282.11 217.28 276 219.08 276 225.44"/><polygon class="o" points="276 233.39 282.11 231.58 282.11 225.22 276 227.03 276 233.39"/><polygon class="o" points="276 236.95 282.11 235.14 282.11 233.17 276 234.98 276 236.95"/><polygon class="o" points="283.38 215.31 289.49 213.5 289.49 207.15 283.38 208.95 283.38 215.31"/><polygon class="o" points="290.76 179.44 296.87 177.63 296.87 171.27 290.76 173.08 290.76 179.44"/><polygon class="o" points="290.76 171.49 296.87 169.68 296.87 163.32 290.76 165.13 290.76 171.49"/><polygon class="o" points="290.76 163.54 296.87 161.73 296.87 155.37 290.76 157.18 290.76 163.54"/><polygon class="o" points="283.38 223.26 289.49 221.45 289.49 215.09 283.38 216.9 283.38 223.26"/><polygon class="o" points="283.38 231.21 289.49 229.4 289.49 223.04 283.38 224.85 283.38 231.21"/><polygon class="o" points="283.38 234.77 289.49 232.96 289.49 230.99 283.38 232.8 283.38 234.77"/><polygon class="o" points="290.76 232.59 296.87 230.78 296.87 228.81 290.76 230.62 290.76 232.59"/><polygon class="o" points="298.13 230.41 304.25 228.6 304.25 226.63 298.13 228.44 298.13 230.41"/><polygon class="o" points="305.51 228.23 311.62 226.42 311.62 224.45 305.51 226.26 305.51 228.23"/><polygon class="o" points="312.89 226.05 319 224.24 319 222.27 312.89 224.08 312.89 226.05"/></g></svg>