<?xml version="1.0" encoding="UTF-8"?>
<svg id="Layer_1" xmlns="http://www.w3.org/2000/svg" version="1.1" viewBox="0 0 1080 200">
  <!-- Generator: Adobe Illustrator 29.5.1, SVG Export Plug-In . SVG Version: 2.1.0 Build 141)  -->
  <defs>
    <style>
      .st0 {
        fill: #9cd3b8;
      }

      .st1 {
        fill: #f67327;
      }
    </style>
  </defs>
  <path class="st0" d="M226.6,184.8V18.1c0-1.3,1-2.3,2.3-2.3h105.7c1.3,0,2.3,1,2.3,2.3v26.2c0,1.3-1,2.3-2.3,2.3h-72c-1.3,0-2.3,1-2.3,2.3v32.4c0,1.3,1,2.3,2.3,2.3h64.9c1.3,0,2.3,1,2.3,2.3v26c0,1.3-1,2.3-2.3,2.3h-64.9c-1.3,0-2.3,1-2.3,2.3v37.5c0,1.3,1,2.3,2.3,2.3h72c1.3,0,2.3,1,2.3,2.3v26.2c0,1.3-1,2.3-2.3,2.3h-105.7c-1.3,0-2.3-1-2.3-2.3h0Z"/>
  <path class="st0" d="M608.8,183.3V48.2c0-1.3-1-2.3-2.3-2.3h-46.5c-1.3,0-2.3-1-2.3-2.3v-27c0-1.3,1-2.3,2.3-2.3h132.6c1.3,0,2.3,1,2.3,2.3v27c0,1.3-1,2.3-2.3,2.3h-46.3c-1.3,0-2.3,1-2.3,2.3v135.1c0,1.3-1,2.3-2.3,2.3h-30.7c-1.3,0-2.3-1-2.3-2.3h0s0,0,0,0Z"/>
  <path class="st0" d="M716.9,100c0-49.9,39.4-88.1,90-88.1s90.5,38.1,90.5,88.1-39.6,88.1-90.5,88.1-90-38.1-90-88.1ZM861,100c0-30.6-22.8-54.5-54.1-54.5s-53.8,24-53.8,54.5,22.8,54.5,53.8,54.5,54.1-24,54.1-54.5Z"/>
  <path class="st0" d="M1067.8,185.6h-37.3c-.7,0-1.3-.3-1.7-.8l-52.4-60.4h-.5v58.9c0,1.3-1,2.3-2.3,2.3h-29.7c-1.3,0-2.3-1-2.3-2.3V16.7c0-1.3,1-2.3,2.3-2.3h63.3c33,0,58,23.5,58,54.3s-17.2,49.4-45.5,54.6c-1.8.3-2.5,2.5-1.2,3.8l50.9,54.7c1.3,1.4.3,3.8-1.7,3.8h0s0,0,0,0ZM976,47.3v43.9c0,1.3,1,2.3,2.3,2.3h23.6c15.4,0,26.9-9.1,26.9-24.7s-11.5-23.7-26.9-23.7h-23.6c-1.3,0-2.3,1-2.3,2.3h0s0,0,0,0Z"/>
  <path class="st1" d="M101,14.4h0c0,0,0,0,0,0h-25.4c-2.4,0-3.8,2.6-2.6,4.6l25.4,46.9c1.2,1.9,3.9,1.9,5.1,0l25.1-46.9c1.2-2-.2-4.6-2.6-4.6,0,0-25.1,0-25.1,0Z"/>
  <path class="st0" d="M12.3,13.8h32.5c.8,0,1.6.5,2,1.2l52.1,98.3c.8,1.6,3.2,1.6,4,0L154.9,15c.4-.8,1.2-1.2,2-1.2h32.5c1.7,0,2.8,1.8,2,3.4l-88.6,165.3c-.8,1.6-3.2,1.6-4,0L10.3,17.1c-.8-1.5.3-3.4,2-3.4Z"/>
  <path class="st0" d="M369.3,100c0-49.9,39.1-88.1,89.5-88.1s60,15.5,75.3,39.8c.7,1.1.3,2.6-.8,3.2l-26.1,14.8c-1.1.6-2.4.2-3-.8-9.5-15-25.6-23.5-45.3-23.5-29.6,0-53.3,23.5-53.3,54.5s23.7,54.5,53.3,54.5,35.8-8.8,45.4-23.8c.7-1,2-1.4,3-.8l26.3,14.9c1.1.6,1.5,2.1.8,3.2-15.6,24.3-43.1,40-75.5,40-50.4,0-89.5-38.1-89.5-88.1h0s0,0,0,0Z"/>
</svg>