<svg version="1.2" xmlns="http://www.w3.org/2000/svg" viewBox="0 0 32 32" width="32" height="32">
	<style>
		.s0 { fill: #f67327 }
		.s1 { fill: #9cd3b8 }
	</style>
	<path class="s0" d="m16.03 1.42l-0.01 0.01v-0.01h-4.39c-0.41 0-0.66 0.45-0.44 0.79l4.39 8.11c0.2 0.33 0.68 0.32 0.88 0l4.35-8.11c0.21-0.34-0.04-0.79-0.44-0.79h-4.34z"/>
	<path class="s1" d="m0.69 1.32h5.62q0.23 0 0.35 0.21l8.99 16.99c0.15 0.28 0.55 0.28 0.7 0l9-16.99q0.11-0.2 0.34-0.21h5.62c0.3 0 0.49 0.32 0.35 0.58l-15.31 28.58c-0.15 0.27-0.55 0.27-0.7 0l-15.31-28.58c-0.14-0.26 0.05-0.58 0.35-0.58z"/>
</svg>
