<?xml version="1.0" encoding="UTF-8"?>
<svg id="Layer_1" xmlns="http://www.w3.org/2000/svg" version="1.1" xmlns:xlink="http://www.w3.org/1999/xlink" viewBox="0 0 1700.8 160.1">
  <!-- Generator: Adobe Illustrator 29.7.1, SVG Export Plug-In . SVG Version: 2.1.1 Build 8)  -->
  <defs>
    <style>
      .st0 {
        fill: #010101;
      }

      .st1 {
        fill: url(#New_Gradient_Swatch_1);
      }
    </style>
    <linearGradient id="New_Gradient_Swatch_1" data-name="New Gradient Swatch 1" x1="32.1" y1="80.1" x2="1668.7" y2="80.1" gradientUnits="userSpaceOnUse">
      <stop offset="0" stop-color="#9acfb4"/>
      <stop offset=".2" stop-color="#9cccb0"/>
      <stop offset=".4" stop-color="#a2c5a5"/>
      <stop offset=".5" stop-color="#adba93"/>
      <stop offset=".7" stop-color="#bda97a"/>
      <stop offset=".8" stop-color="#d19459"/>
      <stop offset="1" stop-color="#ea7b31"/>
      <stop offset="1" stop-color="#f07528"/>
    </linearGradient>
  </defs>
  <g>
    <path class="st0" d="M65,124.4v-34.9l-32.9-53.8h15.2l14,24.3,9.9,17.8h.7l10.1-17.8,14.1-24.3h15.1l-33,53.8v34.9h-13.3Z"/>
    <path class="st0" d="M158,125.5c-6.6,0-12.5-1-17.9-3.1-5.4-2.1-10-5.1-13.9-9.1-3.9-4-6.9-8.8-8.9-14.4-2.1-5.6-3.1-11.9-3.1-18.9s1.1-13.4,3.2-19c2.1-5.6,5.1-10.4,8.9-14.3,3.9-3.9,8.5-6.9,13.8-9,5.4-2.1,11.3-3.1,17.9-3.1s12.6,1,18,3.1c5.3,2.1,9.9,5.1,13.8,9,3.9,3.9,6.9,8.7,8.9,14.3,2.1,5.6,3.1,11.9,3.1,19s-1.1,13.4-3.2,19c-2.1,5.6-5.1,10.4-8.9,14.3-3.9,3.9-8.5,6.9-13.8,9-5.4,2.1-11.3,3.1-17.9,3.1ZM158,114c6.2,0,11.5-1.4,16-4.1,4.5-2.7,8-6.6,10.5-11.6,2.5-5,3.7-11.1,3.7-18.3s-.7-10.2-2.1-14.4c-1.4-4.2-3.5-7.7-6.1-10.7-2.6-2.9-5.8-5.1-9.5-6.6-3.7-1.5-7.9-2.3-12.5-2.3s-11.5,1.3-16,4c-4.5,2.7-8,6.5-10.4,11.6-2.4,5-3.7,11.2-3.7,18.4s.7,10.1,2.1,14.4c1.4,4.2,3.4,7.8,6,10.7,2.6,2.9,5.7,5.1,9.4,6.6,3.7,1.5,7.9,2.3,12.5,2.3Z"/>
    <path class="st0" d="M253,125.5c-7.5,0-14-1.4-19.5-4.1-5.4-2.8-9.6-6.7-12.5-11.7-2.9-5.1-4.3-11.1-4.3-18.1v-55.9h13.1v55.6c0,5,.9,9.1,2.8,12.4,1.9,3.3,4.5,5.8,8,7.4,3.5,1.6,7.6,2.4,12.4,2.4s9.5-.9,12.9-2.7c3.4-1.8,6-4.4,7.7-7.7,1.7-3.4,2.6-7.3,2.6-11.9v-55.6h13.1v55.9c0,7-1.5,13-4.4,18.1-2.9,5.1-7.1,9-12.5,11.7-5.4,2.8-11.9,4.1-19.5,4.1Z"/>
    <path class="st0" d="M307.4,124.4V35.6h42.2c3.6,0,6.8.3,9.7,1,2.9.7,5.5,1.6,7.9,2.9,2.3,1.3,4.3,2.9,5.8,4.8,1.6,1.9,2.8,4.1,3.6,6.6.8,2.5,1.2,5.4,1.2,8.5,0,5.4-1.4,10-4.1,13.8-2.8,3.8-6.7,6.4-11.9,7.9v.7c3.4.6,6.2,1.6,8.3,3.1,2.1,1.5,3.6,3.5,4.6,5.8.9,2.4,1.4,5.3,1.4,8.7v15.2c0,1.5,0,3.1.2,4.7.1,1.6.5,3.2,1.3,4.9h-13.3c-.6-1.2-1-2.6-1.2-4.3-.2-1.6-.3-3.5-.3-5.6v-12.7c0-3-.4-5.5-1.3-7.5-.9-2-2.5-3.5-4.7-4.6-2.3-1-5.5-1.5-9.6-1.5h-27.9v-10.8h27.5c6.3,0,10.9-1.5,13.6-4.4,2.7-2.9,4.1-6.7,4.1-11.3s-.4-4.8-1.2-6.8c-.8-1.9-2-3.5-3.7-4.7-1.6-1.2-3.5-2.1-5.6-2.6-2.1-.5-4.5-.8-7.2-.8h-26.1v77.5h-13.3Z"/>
    <path class="st0" d="M421.3,124.4V35.6h13.3v88.8h-13.3ZM477.6,124.4l-28.1-42.2-16.1,17v-15.7l43.2-47.8h16.1l-34.1,36.9,34.8,51.9h-15.8Z"/>
    <path class="st0" d="M505.6,124.4V35.6h62.2v11.4h-52l3-2.9v71.6l-3-2.9h52.1v11.6h-62.3ZM515.8,84.4v-10.7h46v10.7h-46Z"/>
    <path class="st0" d="M609.3,124.4v-34.9l-32.9-53.8h15.2l14,24.3,9.9,17.8h.7l10.1-17.8,14.1-24.3h15.1l-33,53.8v34.9h-13.3Z"/>
    <path class="st0" d="M696.2,125.5c-7.8,0-14.3-1.2-19.5-3.7-5.2-2.4-9.1-5.8-11.7-10.2-2.6-4.3-3.9-9.4-4-15h13.6c0,3.7.9,7,2.5,9.8,1.6,2.8,4,4.9,7.1,6.4,3.2,1.5,7.3,2.2,12.3,2.2s7.7-.5,10.8-1.5c3.1-1,5.5-2.6,7.2-4.7,1.7-2.1,2.6-4.8,2.6-8.2s-.4-4.6-1.2-6.3c-.8-1.7-2.1-3.1-4-4.3-1.8-1.2-4.2-2.2-7.2-3-3-.8-6.6-1.6-11-2.3-5-.9-9.5-2-13.3-3.2-3.9-1.3-7.1-2.8-9.6-4.7-2.6-1.9-4.5-4.2-5.8-7-1.3-2.8-1.9-6-1.9-9.7s1.3-9.7,3.9-13.5c2.6-3.8,6.3-6.7,11.2-8.8,4.9-2,10.7-3,17.5-3s12.6,1.1,17.4,3.2c4.8,2.2,8.5,5.2,11.1,9,2.6,3.9,3.9,8.4,3.9,13.7h-13.4c-.2-3.6-1.1-6.5-2.7-8.8-1.7-2.3-3.9-4-6.8-5.2-2.8-1.1-6.2-1.7-10-1.7s-7.2.5-10,1.6c-2.8,1.1-4.9,2.6-6.3,4.5s-2.2,4.4-2.2,7.3.7,5.4,2.2,7.2c1.5,1.8,3.9,3.2,7.4,4.3,3.5,1.1,8.2,2.2,14.2,3.2,3.9.6,7.7,1.4,11.3,2.4,3.7,1.1,6.9,2.5,9.7,4.4,2.8,1.9,5.1,4.4,6.8,7.6,1.7,3.2,2.6,7.4,2.6,12.5s-1.3,9.5-4,13.3c-2.6,3.9-6.5,6.9-11.7,9-5.2,2.1-11.5,3.2-19.2,3.2Z"/>
    <path class="st0" d="M769.3,97.5v-10.6h36.5v10.6h-36.5Z"/>
    <path class="st0" d="M874.3,124.4v-34.9l-32.9-53.8h15.2l14,24.3,9.9,17.8h.7l10.1-17.8,14.1-24.3h15.1l-33,53.8v34.9h-13.3Z"/>
    <path class="st0" d="M967.3,125.5c-6.6,0-12.5-1-17.9-3.1-5.4-2.1-10-5.1-13.9-9.1-3.9-4-6.9-8.8-8.9-14.4-2.1-5.6-3.1-11.9-3.1-18.9s1.1-13.4,3.2-19c2.1-5.6,5.1-10.4,8.9-14.3,3.9-3.9,8.5-6.9,13.8-9,5.4-2.1,11.3-3.1,17.9-3.1s12.6,1,18,3.1c5.3,2.1,9.9,5.1,13.8,9,3.9,3.9,6.9,8.7,8.9,14.3,2.1,5.6,3.1,11.9,3.1,19s-1.1,13.4-3.2,19c-2.1,5.6-5.1,10.4-8.9,14.3-3.9,3.9-8.5,6.9-13.8,9-5.4,2.1-11.3,3.1-17.9,3.1ZM967.3,114c6.2,0,11.5-1.4,16-4.1,4.5-2.7,8-6.6,10.5-11.6,2.5-5,3.7-11.1,3.7-18.3s-.7-10.2-2.1-14.4c-1.4-4.2-3.5-7.7-6.1-10.7-2.6-2.9-5.8-5.1-9.5-6.6-3.7-1.5-7.9-2.3-12.5-2.3s-11.5,1.3-16,4c-4.5,2.7-8,6.5-10.4,11.6-2.4,5-3.7,11.2-3.7,18.4s.7,10.1,2.1,14.4c1.4,4.2,3.4,7.8,6,10.7,2.6,2.9,5.7,5.1,9.4,6.6,3.7,1.5,7.9,2.3,12.5,2.3Z"/>
    <path class="st0" d="M1062.3,125.5c-7.5,0-14-1.4-19.5-4.1-5.4-2.8-9.6-6.7-12.5-11.7-2.9-5.1-4.3-11.1-4.3-18.1v-55.9h13.1v55.6c0,5,.9,9.1,2.8,12.4,1.9,3.3,4.5,5.8,8,7.4,3.5,1.6,7.6,2.4,12.4,2.4s9.5-.9,12.9-2.7c3.4-1.8,6-4.4,7.7-7.7,1.7-3.4,2.6-7.3,2.6-11.9v-55.6h13.1v55.9c0,7-1.5,13-4.4,18.1-2.9,5.1-7.1,9-12.5,11.7-5.4,2.8-11.9,4.1-19.5,4.1Z"/>
    <path class="st0" d="M1116.7,124.4V35.6h42.2c3.6,0,6.8.3,9.7,1,2.9.7,5.5,1.6,7.9,2.9,2.3,1.3,4.3,2.9,5.8,4.8,1.6,1.9,2.8,4.1,3.6,6.6.8,2.5,1.2,5.4,1.2,8.5,0,5.4-1.4,10-4.1,13.8-2.8,3.8-6.7,6.4-11.9,7.9v.7c3.4.6,6.2,1.6,8.3,3.1,2.1,1.5,3.6,3.5,4.6,5.8.9,2.4,1.4,5.3,1.4,8.7v15.2c0,1.5,0,3.1.2,4.7s.5,3.2,1.3,4.9h-13.3c-.6-1.2-1-2.6-1.2-4.3-.2-1.6-.3-3.5-.3-5.6v-12.7c0-3-.4-5.5-1.3-7.5-.9-2-2.5-3.5-4.7-4.6-2.3-1-5.5-1.5-9.6-1.5h-27.9v-10.8h27.5c6.3,0,10.9-1.5,13.6-4.4,2.7-2.9,4.1-6.7,4.1-11.3s-.4-4.8-1.2-6.8c-.8-1.9-2-3.5-3.7-4.7-1.6-1.2-3.5-2.1-5.6-2.6-2.1-.5-4.5-.8-7.2-.8h-26.1v77.5h-13.3Z"/>
    <path class="st0" d="M1268.4,125.5c-6.3,0-12.1-1-17.2-3.1-5.2-2.1-9.6-5.1-13.3-9-3.7-3.9-6.6-8.7-8.6-14.2-2-5.5-3-11.7-3-18.5s1.1-13.6,3.2-19.2c2.1-5.7,5.1-10.5,9-14.5,3.9-4,8.6-7,14.1-9.1,5.5-2.1,11.5-3.2,18.2-3.2s14,1.2,19.7,3.5c5.8,2.3,10.5,5.6,14.2,9.9,3.7,4.3,6,9.5,7,15.6h-13.5c-1-3.6-2.7-6.7-5.2-9.3-2.5-2.6-5.6-4.6-9.4-6.1s-8.1-2.2-12.8-2.2-12.1,1.4-16.7,4.3c-4.5,2.8-8,6.8-10.4,12-2.4,5.2-3.6,11.2-3.6,18.1s.7,9.9,2.1,14.1c1.4,4.2,3.4,7.8,6,10.7,2.6,2.9,5.8,5.2,9.6,6.7,3.8,1.5,8,2.3,12.6,2.3s10.4-1,14.7-3.1,7.6-5,10-8.8c2.4-3.8,3.6-8.2,3.6-13.3v-5.1l3.3,3h-34.1v-10.1h44.8v47.5h-10.6l-.7-16.9h-.9c-1.3,3.6-3.5,6.7-6.7,9.4-3.2,2.7-6.9,4.8-11.3,6.3-4.3,1.5-9,2.3-14.1,2.3Z"/>
    <path class="st0" d="M1325.2,124.4l31.5-88.8h18.7l31.4,88.8h-13.8l-22.9-67.2-3.8-11.3h-.7l-3.7,11.3-23,67.2h-13.9ZM1345,103.8l2.3-10.6h37.6l2.3,10.6h-42.2Z"/>
    <path class="st0" d="M1419.3,124.4V35.6h21.2l17,48.2,6.7,22.8h.7l6.6-22.8,17.2-48.2h21.1v88.8h-12.9v-44.7l.5-31.9h-.9l-9.7,29.6-16.4,47h-11.6l-16.2-46.7-9.7-29.8h-1l.5,32v44.6h-13Z"/>
    <path class="st0" d="M1529,124.4V35.6h62.2v11.4h-52l3-2.9v71.6l-3-2.9h52.1v11.6h-62.3ZM1539.3,84.4v-10.7h46v10.7h-46Z"/>
    <path class="st0" d="M1633.9,125.5c-7.8,0-14.3-1.2-19.5-3.7-5.2-2.4-9.1-5.8-11.7-10.2-2.6-4.3-3.9-9.4-4-15h13.6c0,3.7.9,7,2.5,9.8,1.6,2.8,4,4.9,7.1,6.4,3.2,1.5,7.3,2.2,12.3,2.2s7.8-.5,10.8-1.5c3.1-1,5.5-2.6,7.2-4.7,1.7-2.1,2.6-4.8,2.6-8.2s-.4-4.6-1.2-6.3c-.8-1.7-2.1-3.1-4-4.3-1.8-1.2-4.2-2.2-7.2-3-3-.8-6.6-1.6-11-2.3-5-.9-9.5-2-13.3-3.2-3.9-1.3-7.1-2.8-9.6-4.7-2.6-1.9-4.5-4.2-5.8-7-1.3-2.8-1.9-6-1.9-9.7s1.3-9.7,3.9-13.5c2.6-3.8,6.3-6.7,11.2-8.8,4.9-2,10.7-3,17.5-3s12.6,1.1,17.4,3.2c4.8,2.2,8.5,5.2,11.1,9,2.6,3.9,3.9,8.4,3.9,13.7h-13.4c-.2-3.6-1.1-6.5-2.7-8.8-1.7-2.3-3.9-4-6.8-5.2-2.8-1.1-6.2-1.7-10-1.7s-7.2.5-10,1.6c-2.8,1.1-4.9,2.6-6.3,4.5s-2.2,4.4-2.2,7.3.7,5.4,2.2,7.2c1.5,1.8,3.9,3.2,7.4,4.3,3.5,1.1,8.2,2.2,14.2,3.2,3.9.6,7.7,1.4,11.3,2.4,3.7,1.1,6.9,2.5,9.7,4.4,2.8,1.9,5.1,4.4,6.8,7.6,1.7,3.2,2.6,7.4,2.6,12.5s-1.3,9.5-4,13.3c-2.6,3.9-6.5,6.9-11.7,9-5.2,2.1-11.5,3.2-19.2,3.2Z"/>
  </g>
  <g>
    <path class="st1" d="M65,124.4v-34.9l-32.9-53.8h15.2l14,24.3,9.9,17.8h.7l10.1-17.8,14.1-24.3h15.1l-33,53.8v34.9h-13.3Z"/>
    <path class="st1" d="M158,125.5c-6.6,0-12.5-1-17.9-3.1-5.4-2.1-10-5.1-13.9-9.1-3.9-4-6.9-8.8-8.9-14.4-2.1-5.6-3.1-11.9-3.1-18.9s1.1-13.4,3.2-19c2.1-5.6,5.1-10.4,8.9-14.3,3.9-3.9,8.5-6.9,13.8-9,5.4-2.1,11.3-3.1,17.9-3.1s12.6,1,18,3.1c5.3,2.1,9.9,5.1,13.8,9,3.9,3.9,6.9,8.7,8.9,14.3,2.1,5.6,3.1,11.9,3.1,19s-1.1,13.4-3.2,19c-2.1,5.6-5.1,10.4-8.9,14.3-3.9,3.9-8.5,6.9-13.8,9-5.4,2.1-11.3,3.1-17.9,3.1ZM158,114c6.2,0,11.5-1.4,16-4.1,4.5-2.7,8-6.6,10.5-11.6,2.5-5,3.7-11.1,3.7-18.3s-.7-10.2-2.1-14.4c-1.4-4.2-3.5-7.7-6.1-10.7-2.6-2.9-5.8-5.1-9.5-6.6-3.7-1.5-7.9-2.3-12.5-2.3s-11.5,1.3-16,4c-4.5,2.7-8,6.5-10.4,11.6-2.4,5-3.7,11.2-3.7,18.4s.7,10.1,2.1,14.4c1.4,4.2,3.4,7.8,6,10.7,2.6,2.9,5.7,5.1,9.4,6.6,3.7,1.5,7.9,2.3,12.5,2.3Z"/>
    <path class="st1" d="M253,125.5c-7.5,0-14-1.4-19.5-4.1-5.4-2.8-9.6-6.7-12.5-11.7-2.9-5.1-4.3-11.1-4.3-18.1v-55.9h13.1v55.6c0,5,.9,9.1,2.8,12.4,1.9,3.3,4.5,5.8,8,7.4,3.5,1.6,7.6,2.4,12.4,2.4s9.5-.9,12.9-2.7c3.4-1.8,6-4.4,7.7-7.7,1.7-3.4,2.6-7.3,2.6-11.9v-55.6h13.1v55.9c0,7-1.5,13-4.4,18.1-2.9,5.1-7.1,9-12.5,11.7-5.4,2.8-11.9,4.1-19.5,4.1Z"/>
    <path class="st1" d="M307.4,124.4V35.6h42.2c3.6,0,6.8.3,9.7,1,2.9.7,5.5,1.6,7.9,2.9,2.3,1.3,4.3,2.9,5.8,4.8,1.6,1.9,2.8,4.1,3.6,6.6.8,2.5,1.2,5.4,1.2,8.5,0,5.4-1.4,10-4.1,13.8-2.8,3.8-6.7,6.4-11.9,7.9v.7c3.4.6,6.2,1.6,8.3,3.1,2.1,1.5,3.6,3.5,4.6,5.8.9,2.4,1.4,5.3,1.4,8.7v15.2c0,1.5,0,3.1.2,4.7.1,1.6.5,3.2,1.3,4.9h-13.3c-.6-1.2-1-2.6-1.2-4.3-.2-1.6-.3-3.5-.3-5.6v-12.7c0-3-.4-5.5-1.3-7.5-.9-2-2.5-3.5-4.7-4.6-2.3-1-5.5-1.5-9.6-1.5h-27.9v-10.8h27.5c6.3,0,10.9-1.5,13.6-4.4,2.7-2.9,4.1-6.7,4.1-11.3s-.4-4.8-1.2-6.8c-.8-1.9-2-3.5-3.7-4.7-1.6-1.2-3.5-2.1-5.6-2.6-2.1-.5-4.5-.8-7.2-.8h-26.1v77.5h-13.3Z"/>
    <path class="st1" d="M421.3,124.4V35.6h13.3v88.8h-13.3ZM477.6,124.4l-28.1-42.2-16.1,17v-15.7l43.2-47.8h16.1l-34.1,36.9,34.8,51.9h-15.8Z"/>
    <path class="st1" d="M505.6,124.4V35.6h62.2v11.4h-52l3-2.9v71.6l-3-2.9h52.1v11.6h-62.3ZM515.8,84.4v-10.7h46v10.7h-46Z"/>
    <path class="st1" d="M609.3,124.4v-34.9l-32.9-53.8h15.2l14,24.3,9.9,17.8h.7l10.1-17.8,14.1-24.3h15.1l-33,53.8v34.9h-13.3Z"/>
    <path class="st1" d="M696.2,125.5c-7.8,0-14.3-1.2-19.5-3.7-5.2-2.4-9.1-5.8-11.7-10.2-2.6-4.3-3.9-9.4-4-15h13.6c0,3.7.9,7,2.5,9.8,1.6,2.8,4,4.9,7.1,6.4,3.2,1.5,7.3,2.2,12.3,2.2s7.7-.5,10.8-1.5c3.1-1,5.5-2.6,7.2-4.7,1.7-2.1,2.6-4.8,2.6-8.2s-.4-4.6-1.2-6.3c-.8-1.7-2.1-3.1-4-4.3-1.8-1.2-4.2-2.2-7.2-3-3-.8-6.6-1.6-11-2.3-5-.9-9.5-2-13.3-3.2-3.9-1.3-7.1-2.8-9.6-4.7-2.6-1.9-4.5-4.2-5.8-7-1.3-2.8-1.9-6-1.9-9.7s1.3-9.7,3.9-13.5c2.6-3.8,6.3-6.7,11.2-8.8,4.9-2,10.7-3,17.5-3s12.6,1.1,17.4,3.2c4.8,2.2,8.5,5.2,11.1,9,2.6,3.9,3.9,8.4,3.9,13.7h-13.4c-.2-3.6-1.1-6.5-2.7-8.8-1.7-2.3-3.9-4-6.8-5.2-2.8-1.1-6.2-1.7-10-1.7s-7.2.5-10,1.6c-2.8,1.1-4.9,2.6-6.3,4.5s-2.2,4.4-2.2,7.3.7,5.4,2.2,7.2c1.5,1.8,3.9,3.2,7.4,4.3,3.5,1.1,8.2,2.2,14.2,3.2,3.9.6,7.7,1.4,11.3,2.4,3.7,1.1,6.9,2.5,9.7,4.4,2.8,1.9,5.1,4.4,6.8,7.6,1.7,3.2,2.6,7.4,2.6,12.5s-1.3,9.5-4,13.3c-2.6,3.9-6.5,6.9-11.7,9-5.2,2.1-11.5,3.2-19.2,3.2Z"/>
    <path class="st1" d="M769.3,97.5v-10.6h36.5v10.6h-36.5Z"/>
    <path class="st1" d="M874.3,124.4v-34.9l-32.9-53.8h15.2l14,24.3,9.9,17.8h.7l10.1-17.8,14.1-24.3h15.1l-33,53.8v34.9h-13.3Z"/>
    <path class="st1" d="M967.3,125.5c-6.6,0-12.5-1-17.9-3.1-5.4-2.1-10-5.1-13.9-9.1-3.9-4-6.9-8.8-8.9-14.4-2.1-5.6-3.1-11.9-3.1-18.9s1.1-13.4,3.2-19c2.1-5.6,5.1-10.4,8.9-14.3,3.9-3.9,8.5-6.9,13.8-9,5.4-2.1,11.3-3.1,17.9-3.1s12.6,1,18,3.1c5.3,2.1,9.9,5.1,13.8,9,3.9,3.9,6.9,8.7,8.9,14.3,2.1,5.6,3.1,11.9,3.1,19s-1.1,13.4-3.2,19c-2.1,5.6-5.1,10.4-8.9,14.3-3.9,3.9-8.5,6.9-13.8,9-5.4,2.1-11.3,3.1-17.9,3.1ZM967.3,114c6.2,0,11.5-1.4,16-4.1,4.5-2.7,8-6.6,10.5-11.6,2.5-5,3.7-11.1,3.7-18.3s-.7-10.2-2.1-14.4c-1.4-4.2-3.5-7.7-6.1-10.7-2.6-2.9-5.8-5.1-9.5-6.6-3.7-1.5-7.9-2.3-12.5-2.3s-11.5,1.3-16,4c-4.5,2.7-8,6.5-10.4,11.6-2.4,5-3.7,11.2-3.7,18.4s.7,10.1,2.1,14.4c1.4,4.2,3.4,7.8,6,10.7,2.6,2.9,5.7,5.1,9.4,6.6,3.7,1.5,7.9,2.3,12.5,2.3Z"/>
    <path class="st1" d="M1062.3,125.5c-7.5,0-14-1.4-19.5-4.1-5.4-2.8-9.6-6.7-12.5-11.7-2.9-5.1-4.3-11.1-4.3-18.1v-55.9h13.1v55.6c0,5,.9,9.1,2.8,12.4,1.9,3.3,4.5,5.8,8,7.4,3.5,1.6,7.6,2.4,12.4,2.4s9.5-.9,12.9-2.7c3.4-1.8,6-4.4,7.7-7.7,1.7-3.4,2.6-7.3,2.6-11.9v-55.6h13.1v55.9c0,7-1.5,13-4.4,18.1-2.9,5.1-7.1,9-12.5,11.7-5.4,2.8-11.9,4.1-19.5,4.1Z"/>
    <path class="st1" d="M1116.7,124.4V35.6h42.2c3.6,0,6.8.3,9.7,1,2.9.7,5.5,1.6,7.9,2.9,2.3,1.3,4.3,2.9,5.8,4.8,1.6,1.9,2.8,4.1,3.6,6.6.8,2.5,1.2,5.4,1.2,8.5,0,5.4-1.4,10-4.1,13.8-2.8,3.8-6.7,6.4-11.9,7.9v.7c3.4.6,6.2,1.6,8.3,3.1,2.1,1.5,3.6,3.5,4.6,5.8.9,2.4,1.4,5.3,1.4,8.7v15.2c0,1.5,0,3.1.2,4.7s.5,3.2,1.3,4.9h-13.3c-.6-1.2-1-2.6-1.2-4.3-.2-1.6-.3-3.5-.3-5.6v-12.7c0-3-.4-5.5-1.3-7.5-.9-2-2.5-3.5-4.7-4.6-2.3-1-5.5-1.5-9.6-1.5h-27.9v-10.8h27.5c6.3,0,10.9-1.5,13.6-4.4,2.7-2.9,4.1-6.7,4.1-11.3s-.4-4.8-1.2-6.8c-.8-1.9-2-3.5-3.7-4.7-1.6-1.2-3.5-2.1-5.6-2.6-2.1-.5-4.5-.8-7.2-.8h-26.1v77.5h-13.3Z"/>
    <path class="st1" d="M1268.4,125.5c-6.3,0-12.1-1-17.2-3.1-5.2-2.1-9.6-5.1-13.3-9-3.7-3.9-6.6-8.7-8.6-14.2-2-5.5-3-11.7-3-18.5s1.1-13.6,3.2-19.2c2.1-5.7,5.1-10.5,9-14.5,3.9-4,8.6-7,14.1-9.1,5.5-2.1,11.5-3.2,18.2-3.2s14,1.2,19.7,3.5c5.8,2.3,10.5,5.6,14.2,9.9,3.7,4.3,6,9.5,7,15.6h-13.5c-1-3.6-2.7-6.7-5.2-9.3-2.5-2.6-5.6-4.6-9.4-6.1s-8.1-2.2-12.8-2.2-12.1,1.4-16.7,4.3c-4.5,2.8-8,6.8-10.4,12-2.4,5.2-3.6,11.2-3.6,18.1s.7,9.9,2.1,14.1c1.4,4.2,3.4,7.8,6,10.7,2.6,2.9,5.8,5.2,9.6,6.7,3.8,1.5,8,2.3,12.6,2.3s10.4-1,14.7-3.1,7.6-5,10-8.8c2.4-3.8,3.6-8.2,3.6-13.3v-5.1l3.3,3h-34.1v-10.1h44.8v47.5h-10.6l-.7-16.9h-.9c-1.3,3.6-3.5,6.7-6.7,9.4-3.2,2.7-6.9,4.8-11.3,6.3-4.3,1.5-9,2.3-14.1,2.3Z"/>
    <path class="st1" d="M1325.2,124.4l31.5-88.8h18.7l31.4,88.8h-13.8l-22.9-67.2-3.8-11.3h-.7l-3.7,11.3-23,67.2h-13.9ZM1345,103.8l2.3-10.6h37.6l2.3,10.6h-42.2Z"/>
    <path class="st1" d="M1419.3,124.4V35.6h21.2l17,48.2,6.7,22.8h.7l6.6-22.8,17.2-48.2h21.1v88.8h-12.9v-44.7l.5-31.9h-.9l-9.7,29.6-16.4,47h-11.6l-16.2-46.7-9.7-29.8h-1l.5,32v44.6h-13Z"/>
    <path class="st1" d="M1529,124.4V35.6h62.2v11.4h-52l3-2.9v71.6l-3-2.9h52.1v11.6h-62.3ZM1539.3,84.4v-10.7h46v10.7h-46Z"/>
    <path class="st1" d="M1633.9,125.5c-7.8,0-14.3-1.2-19.5-3.7-5.2-2.4-9.1-5.8-11.7-10.2-2.6-4.3-3.9-9.4-4-15h13.6c0,3.7.9,7,2.5,9.8,1.6,2.8,4,4.9,7.1,6.4,3.2,1.5,7.3,2.2,12.3,2.2s7.8-.5,10.8-1.5c3.1-1,5.5-2.6,7.2-4.7,1.7-2.1,2.6-4.8,2.6-8.2s-.4-4.6-1.2-6.3c-.8-1.7-2.1-3.1-4-4.3-1.8-1.2-4.2-2.2-7.2-3-3-.8-6.6-1.6-11-2.3-5-.9-9.5-2-13.3-3.2-3.9-1.3-7.1-2.8-9.6-4.7-2.6-1.9-4.5-4.2-5.8-7-1.3-2.8-1.9-6-1.9-9.7s1.3-9.7,3.9-13.5c2.6-3.8,6.3-6.7,11.2-8.8,4.9-2,10.7-3,17.5-3s12.6,1.1,17.4,3.2c4.8,2.2,8.5,5.2,11.1,9,2.6,3.9,3.9,8.4,3.9,13.7h-13.4c-.2-3.6-1.1-6.5-2.7-8.8-1.7-2.3-3.9-4-6.8-5.2-2.8-1.1-6.2-1.7-10-1.7s-7.2.5-10,1.6c-2.8,1.1-4.9,2.6-6.3,4.5s-2.2,4.4-2.2,7.3.7,5.4,2.2,7.2c1.5,1.8,3.9,3.2,7.4,4.3,3.5,1.1,8.2,2.2,14.2,3.2,3.9.6,7.7,1.4,11.3,2.4,3.7,1.1,6.9,2.5,9.7,4.4,2.8,1.9,5.1,4.4,6.8,7.6,1.7,3.2,2.6,7.4,2.6,12.5s-1.3,9.5-4,13.3c-2.6,3.9-6.5,6.9-11.7,9-5.2,2.1-11.5,3.2-19.2,3.2Z"/>
  </g>
</svg>